<svg class="montanhas-svg-img" width="100%" viewBox="0 0 800 450" fill="none" xmlns="http://www.w3.org/2000/svg">
          <g id="Frame 1" clip-path="url(#clip0_4_2)">
          <g id="Montanha-Esquerda" filter="url(#filter0_di_4_2)">
          <path fill-rule="evenodd" clip-rule="evenodd" d="M11 238.5L42 201.5V213L54.5 187L100 146V155L124.5 85L131.5 158.5L120 193L73.5 248.5L188.5 169.5L227 213H242L202.5 292.5L125.5 331L96 342.5L87.5 358L67.5 376L186.5 367.5L214.25 351.25L242 335L250 308L275 326L302 308V313.5L330.5 292.5L442.5 346.5H432L490 370L471 377.5L926 455.5H-21V257.5L11 238.5Z" fill="#3B3B4B"/>
          <path d="M330.5 292.5L242 213L202.5 292.5L125.5 331L96 342.5L87.5 358L67.5 376L186.5 367.5L214.25 351.25L242 335L250 308L275 326L302 308V313.5L330.5 292.5Z" fill="#D7D7D7"/>
          <path d="M188.5 169.5L124.5 85L131.5 158.5L120 193L73.5 248.5L188.5 169.5Z" fill="#D7D7D7"/>
          <path d="M11 238.5L11.2553 238.93L11.3285 238.886L11.3833 238.821L11 238.5ZM42 201.5H42.5V200.125L41.6167 201.179L42 201.5ZM42 213H41.5L42.4506 213.217L42 213ZM54.5 187L54.1653 186.629L54.0921 186.695L54.0494 186.783L54.5 187ZM100 146H100.5V144.876L99.6653 145.629L100 146ZM100 155H99.5L100.472 155.165L100 155ZM124.5 85L124.899 84.6981L124.336 83.9552L124.028 84.8348L124.5 85ZM227 213L226.626 213.331L226.775 213.5H227V213ZM242 213L242.334 212.628L242.192 212.5H242V213ZM442.5 346.5V347L442.717 346.05L442.5 346.5ZM432 346.5V346L431.812 346.963L432 346.5ZM490 370L490.184 370.465L491.346 370.006L490.188 369.537L490 370ZM471 377.5L470.816 377.035L469.155 377.691L470.916 377.993L471 377.5ZM926 455.5V456L926.084 455.007L926 455.5ZM-21 455.5H-21.5V456H-21V455.5ZM-21 257.5L-21.2553 257.07L-21.5 257.215V257.5H-21ZM131.5 158.5L131.974 158.658L132.008 158.558L131.998 158.453L131.5 158.5ZM120 193L120.383 193.321L120.444 193.248L120.474 193.158L120 193ZM73.5 248.5L73.1167 248.179L73.7831 248.912L73.5 248.5ZM202.5 292.5L202.724 292.947L202.873 292.872L202.948 292.722L202.5 292.5ZM125.5 331L125.682 331.466L125.703 331.457L125.724 331.447L125.5 331ZM96 342.5L95.8184 342.034L95.649 342.1L95.5616 342.26L96 342.5ZM87.5 358L87.8345 358.372L87.8976 358.315L87.9384 358.24L87.5 358ZM67.5 376L67.1655 375.628L66.0832 376.602L67.5356 376.499L67.5 376ZM186.5 367.5L186.536 367.999L186.652 367.99L186.753 367.931L186.5 367.5ZM242 335L242.253 335.431L242.423 335.332L242.479 335.142L242 335ZM250 308L250.292 307.594L249.721 307.183L249.521 307.858L250 308ZM275 326L274.708 326.406L274.989 326.608L275.277 326.416L275 326ZM302 308H302.5V307.066L301.723 307.584L302 308ZM302 313.5H301.5V314.489L302.297 313.903L302 313.5ZM11.3833 238.821L42.3833 201.821L41.6167 201.179L10.6167 238.179L11.3833 238.821ZM41.5 201.5V213H42.5V201.5H41.5ZM42.4506 213.217L54.9506 187.217L54.0494 186.783L41.5494 212.783L42.4506 213.217ZM54.8347 187.371L100.335 146.371L99.6653 145.629L54.1653 186.629L54.8347 187.371ZM99.5 146V155H100.5V146H99.5ZM100.472 155.165L124.972 85.1652L124.028 84.8348L99.5281 154.835L100.472 155.165ZM124.101 85.3019L188.101 169.802L188.899 169.198L124.899 84.6981L124.101 85.3019ZM188.126 169.831L226.626 213.331L227.374 212.669L188.874 169.169L188.126 169.831ZM227 213.5H242V212.5H227V213.5ZM241.666 213.372L330.166 292.872L330.834 292.128L242.334 212.628L241.666 213.372ZM330.283 292.95L442.283 346.95L442.717 346.05L330.717 292.05L330.283 292.95ZM442.5 346H432V347H442.5V346ZM431.812 346.963L489.812 370.463L490.188 369.537L432.188 346.037L431.812 346.963ZM489.816 369.535L470.816 377.035L471.184 377.965L490.184 370.465L489.816 369.535ZM470.916 377.993L925.916 455.993L926.084 455.007L471.084 377.007L470.916 377.993ZM926 455H-21V456H926V455ZM-20.5 455.5V257.5H-21.5V455.5H-20.5ZM-20.7447 257.93L11.2553 238.93L10.7447 238.07L-21.2553 257.07L-20.7447 257.93ZM124.002 85.0474L131.002 158.547L131.998 158.453L124.998 84.9526L124.002 85.0474ZM131.026 158.342L119.526 192.842L120.474 193.158L131.974 158.658L131.026 158.342ZM119.617 192.679L73.1167 248.179L73.8833 248.821L120.383 193.321L119.617 192.679ZM73.7831 248.912L188.783 169.912L188.217 169.088L73.2169 248.088L73.7831 248.912ZM241.552 212.778L202.052 292.278L202.948 292.722L242.448 213.222L241.552 212.778ZM202.276 292.053L125.276 330.553L125.724 331.447L202.724 292.947L202.276 292.053ZM125.318 330.534L95.8184 342.034L96.1816 342.966L125.682 331.466L125.318 330.534ZM95.5616 342.26L87.0616 357.76L87.9384 358.24L96.4384 342.74L95.5616 342.26ZM87.1655 357.628L67.1655 375.628L67.8345 376.372L87.8345 358.372L87.1655 357.628ZM67.5356 376.499L186.536 367.999L186.464 367.001L67.4644 375.501L67.5356 376.499ZM242.479 335.142L250.479 308.142L249.521 307.858L241.521 334.858L242.479 335.142ZM249.708 308.406L274.708 326.406L275.292 325.594L250.292 307.594L249.708 308.406ZM275.277 326.416L302.277 308.416L301.723 307.584L274.723 325.584L275.277 326.416ZM301.5 308V313.5H302.5V308H301.5ZM302.297 313.903L330.797 292.903L330.203 292.097L301.703 313.097L302.297 313.903ZM186.753 367.931L214.503 351.681L213.997 350.819L186.247 367.069L186.753 367.931ZM214.503 351.681L242.253 335.431L241.747 334.569L213.997 350.819L214.503 351.681Z" fill="black"/>
          </g>
          <g id="Montanha-Direita" filter="url(#filter1_di_4_2)">
          <path d="M767 126.8C753 126 731.427 143.18 717 154C764.652 164.628 782.992 156.099 801 115.39L767 126.8Z" fill="#5F7E60"/>
          <path d="M595 276L578.831 294C591.068 294 601.518 294.988 611.4 295.922C629.64 297.647 645.948 299.189 668 294C702 286 728 262 728 262C728 262 685.61 278.397 686 262C686.166 255.016 694 246 694 246L668 262L662 222C639.3 227.837 628.868 239.947 617.201 253.491C610.879 260.83 604.195 268.589 595 276Z" fill="#E8E8E8"/>
          <path fill-rule="evenodd" clip-rule="evenodd" d="M523 326L504 359L624 352L483 390L489 380L364 412L322.5 458C509.366 460.538 614.134 461.962 801 464.5L826 107L801 115.39C782.992 156.099 764.652 164.628 717 154C697.421 168.684 692.217 183.129 687.902 195.106C683.402 207.598 679.868 217.405 662 222L668 262L694 246C694 246 686.166 255.016 686 262C685.61 278.397 728 262 728 262C728 262 702 286 668 294C645.948 299.189 629.64 297.647 611.4 295.922C601.518 294.988 591.068 294 578.831 294C560.991 300.353 554.748 311.752 545.187 329.211C544.169 331.072 543.112 333.001 542 335L523 326Z" fill="#3B3B4B"/>
          <path d="M475 352L462 375L364 412L489 380L483 390L624 352L504 359L475 352Z" fill="#E8E8E8"/>
          <path d="M322.5 458L322.129 457.665L321.389 458.485L322.493 458.5L322.5 458ZM462 375L462.177 375.468L462.346 375.404L462.435 375.246L462 375ZM475 352L475.117 351.514L474.75 351.425L474.565 351.754L475 352ZM504 359L503.883 359.486L503.955 359.503L504.029 359.499L504 359ZM523 326L523.214 325.548L522.797 325.351L522.567 325.751L523 326ZM542 335L541.786 335.452L542.209 335.652L542.437 335.243L542 335ZM595 276L594.686 275.611L594.655 275.636L594.628 275.666L595 276ZM662 222L661.875 221.516L661.875 221.516L662 222ZM717 154L716.7 153.6L716.7 153.6L717 154ZM826 107L826.499 107.035L826.551 106.288L825.841 106.526L826 107ZM801 464.5L800.993 465L801.466 465.006L801.499 464.535L801 464.5ZM767 126.8L766.971 127.3L767.068 127.305L767.159 127.275L767 126.8ZM364 412L363.823 411.532L363.71 411.575L363.629 411.665L364 412ZM489 380L489.429 380.257L490.055 379.214L488.876 379.516L489 380ZM483 390L482.571 389.743L481.934 390.805L483.13 390.483L483 390ZM624 352L624.13 352.483L623.971 351.501L624 352ZM668 294L668.115 294.487L668.115 294.487L668 294ZM728 262L728.339 262.367L727.82 261.534L728 262ZM686 262L685.5 261.988L686 262ZM694 246L694.377 246.328L693.738 245.574L694 246ZM668 262L667.506 262.074L667.618 262.822L668.262 262.426L668 262ZM801 115.39L800.841 114.916L801 115.39ZM687.902 195.106L688.373 195.275L688.373 195.275L687.902 195.106ZM617.201 253.491L617.58 253.817L617.58 253.817L617.201 253.491ZM545.187 329.211L544.749 328.971L544.749 328.971L545.187 329.211ZM611.4 295.922L611.353 296.42L611.353 296.42L611.4 295.922ZM462.435 375.246L475.435 352.246L474.565 351.754L461.565 374.754L462.435 375.246ZM474.883 352.486C480.545 353.853 487.795 355.603 493.63 357.011C496.547 357.715 499.11 358.334 500.944 358.777C501.861 358.998 502.596 359.175 503.101 359.297C503.354 359.358 503.549 359.406 503.681 359.437C503.747 359.453 503.798 359.466 503.832 359.474C503.848 359.478 503.861 359.481 503.87 359.483C503.875 359.484 503.876 359.484 503.879 359.485C503.88 359.485 503.882 359.486 503.882 359.486C503.882 359.486 503.882 359.486 503.882 359.486C503.883 359.486 503.883 359.486 504 359C504.117 358.514 504.117 358.514 504.117 358.514C504.117 358.514 504.117 358.514 504.117 358.514C504.116 358.514 504.115 358.514 504.114 358.513C504.112 358.513 504.109 358.512 504.104 358.511C504.096 358.509 504.083 358.506 504.066 358.502C504.032 358.493 503.982 358.481 503.916 358.465C503.784 358.433 503.588 358.386 503.336 358.325C502.83 358.203 502.096 358.026 501.179 357.805C499.345 357.362 496.781 356.743 493.864 356.039C488.03 354.631 480.78 352.881 475.117 351.514L474.883 352.486ZM504.433 359.249L523.433 326.249L522.567 325.751L503.567 358.751L504.433 359.249ZM522.786 326.452L541.786 335.452L542.214 334.548L523.214 325.548L522.786 326.452ZM825.501 106.965L800.501 464.465L801.499 464.535L826.499 107.035L825.501 106.965ZM801.007 464C707.574 462.731 634.665 461.74 561.757 460.75C488.848 459.76 415.94 458.769 322.507 457.5L322.493 458.5C415.926 459.769 488.835 460.76 561.743 461.75C634.652 462.74 707.56 463.731 800.993 465L801.007 464ZM579.202 294.334L595.372 276.334L594.628 275.666L578.459 293.666L579.202 294.334ZM717.3 154.4C724.525 148.982 733.501 142 742.424 136.467C746.883 133.702 751.315 131.308 755.494 129.656C759.677 128.002 763.573 127.105 766.971 127.3L767.029 126.301C763.427 126.095 759.376 127.046 755.126 128.726C750.872 130.408 746.384 132.835 741.897 135.618C732.926 141.18 723.902 148.198 716.7 153.6L717.3 154.4ZM322.871 458.335L364.371 412.335L363.629 411.665L322.129 457.665L322.871 458.335ZM364.177 412.468L462.177 375.468L461.823 374.532L363.823 411.532L364.177 412.468ZM364.124 412.484L489.124 380.484L488.876 379.516L363.876 411.516L364.124 412.484ZM488.571 379.743L482.571 389.743L483.429 390.257L489.429 380.257L488.571 379.743ZM483.13 390.483L624.13 352.483L623.87 351.517L482.87 389.517L483.13 390.483ZM623.971 351.501L503.971 358.501L504.029 359.499L624.029 352.499L623.971 351.501ZM668.115 294.487C685.191 290.469 700.245 282.437 711.023 275.419C716.414 271.909 720.739 268.649 723.719 266.265C725.208 265.074 726.362 264.101 727.143 263.425C727.534 263.087 727.832 262.824 728.033 262.644C728.133 262.554 728.209 262.486 728.261 262.439C728.286 262.416 728.306 262.398 728.319 262.386C728.325 262.38 728.33 262.376 728.334 262.372C728.335 262.371 728.337 262.37 728.338 262.369C728.338 262.368 728.338 262.368 728.339 262.368C728.339 262.368 728.339 262.367 728 262C727.661 261.633 727.661 261.633 727.661 261.633C727.661 261.633 727.66 261.633 727.66 261.633C727.659 261.634 727.658 261.635 727.657 261.636C727.654 261.639 727.649 261.643 727.643 261.649C727.631 261.66 727.613 261.677 727.588 261.699C727.539 261.744 727.465 261.811 727.366 261.899C727.17 262.075 726.876 262.335 726.489 262.669C725.717 263.337 724.573 264.301 723.094 265.485C720.136 267.851 715.836 271.091 710.477 274.581C699.755 281.563 684.809 289.531 667.885 293.513L668.115 294.487ZM728 262C727.82 261.534 727.82 261.534 727.819 261.534C727.819 261.534 727.819 261.534 727.818 261.534C727.817 261.535 727.815 261.535 727.813 261.536C727.808 261.538 727.8 261.541 727.79 261.545C727.77 261.553 727.74 261.564 727.701 261.579C727.621 261.609 727.503 261.654 727.349 261.712C727.04 261.827 726.587 261.995 726.01 262.202C724.856 262.617 723.207 263.191 721.229 263.83C717.271 265.108 712.005 266.639 706.758 267.658C701.496 268.681 696.314 269.176 692.494 268.427C690.589 268.053 689.072 267.379 688.046 266.354C687.034 265.343 686.454 263.945 686.5 262.012L685.5 261.988C685.449 264.155 686.108 265.831 687.339 267.062C688.557 268.278 690.288 269.013 692.302 269.408C696.32 270.196 701.662 269.667 706.949 268.64C712.251 267.61 717.558 266.066 721.536 264.782C723.526 264.139 725.186 263.561 726.348 263.143C726.93 262.934 727.387 262.765 727.699 262.648C727.855 262.59 727.975 262.545 728.056 262.514C728.097 262.498 728.128 262.487 728.148 262.479C728.159 262.475 728.167 262.472 728.172 262.47C728.175 262.469 728.177 262.468 728.178 262.467C728.179 262.467 728.179 262.467 728.18 262.467C728.18 262.466 728.18 262.466 728 262ZM686.5 262.012C686.58 258.667 688.511 254.767 690.485 251.648C691.464 250.101 692.439 248.769 693.169 247.823C693.534 247.351 693.837 246.976 694.049 246.719C694.155 246.591 694.237 246.492 694.293 246.426C694.321 246.393 694.343 246.368 694.357 246.352C694.364 246.344 694.369 246.337 694.373 246.333C694.374 246.331 694.376 246.33 694.376 246.329C694.377 246.329 694.377 246.328 694.377 246.328C694.377 246.328 694.377 246.328 694.377 246.328C694.377 246.328 694.377 246.328 694 246C693.623 245.672 693.622 245.672 693.622 245.672C693.622 245.672 693.622 245.673 693.622 245.673C693.622 245.673 693.621 245.674 693.621 245.674C693.62 245.676 693.618 245.677 693.616 245.68C693.612 245.684 693.606 245.691 693.598 245.7C693.583 245.718 693.56 245.745 693.531 245.78C693.472 245.849 693.386 245.951 693.277 246.083C693.06 246.347 692.75 246.73 692.378 247.212C691.634 248.176 690.64 249.534 689.64 251.114C687.655 254.249 685.587 258.349 685.5 261.988L686.5 262.012ZM693.738 245.574L667.738 261.574L668.262 262.426L694.262 246.426L693.738 245.574ZM668.494 261.926L662.494 221.926L661.506 222.074L667.506 262.074L668.494 261.926ZM767.159 127.275C777.373 123.847 790.126 119.567 801.159 115.864L800.841 114.916C789.808 118.619 777.055 122.899 766.841 126.326L767.159 127.275ZM801.159 115.864C808.087 113.539 814.337 111.442 818.855 109.925C821.114 109.167 822.94 108.554 824.201 108.131C824.832 107.919 825.321 107.755 825.653 107.644C825.819 107.588 825.946 107.546 826.031 107.517C826.073 107.503 826.105 107.492 826.127 107.485C826.137 107.481 826.145 107.479 826.151 107.477C826.154 107.476 826.156 107.475 826.157 107.475C826.158 107.474 826.158 107.474 826.159 107.474C826.159 107.474 826.159 107.474 826.159 107.474C826.159 107.474 826.159 107.474 826 107C825.841 106.526 825.841 106.526 825.841 106.526C825.841 106.526 825.841 106.526 825.84 106.526C825.84 106.526 825.84 106.526 825.839 106.527C825.837 106.527 825.836 106.528 825.833 106.529C825.827 106.531 825.819 106.533 825.809 106.537C825.787 106.544 825.755 106.555 825.712 106.569C825.627 106.598 825.501 106.64 825.335 106.696C825.003 106.807 824.514 106.971 823.883 107.183C822.622 107.606 820.796 108.219 818.537 108.977C814.019 110.494 807.769 112.591 800.841 114.916L801.159 115.864ZM716.891 154.488C740.734 159.806 757.374 160.367 770.326 154.401C783.29 148.429 792.441 135.975 801.457 115.592L800.543 115.188C791.551 135.515 782.528 147.679 769.907 153.493C757.274 159.311 740.918 158.823 717.109 153.512L716.891 154.488ZM474.883 352.486L503.883 359.486L504.117 358.514L475.117 351.514L474.883 352.486ZM767.159 127.275L801.159 115.864L800.841 114.916L766.841 126.326L767.159 127.275ZM801.159 115.864L826.159 107.474L825.841 106.526L800.841 114.916L801.159 115.864ZM716.7 153.6C697.003 168.373 691.758 182.93 687.432 194.936L688.373 195.275C692.677 183.328 697.839 168.996 717.3 154.4L716.7 153.6ZM687.432 194.936C685.176 201.199 683.192 206.69 679.574 211.201C675.975 215.689 670.726 219.24 661.875 221.516L662.125 222.484C671.142 220.165 676.595 216.515 680.354 211.827C684.095 207.163 686.129 201.504 688.373 195.275L687.432 194.936ZM661.875 221.516C639.014 227.394 628.495 239.614 616.822 253.165L617.58 253.817C629.24 240.281 639.585 228.28 662.125 222.484L661.875 221.516ZM616.822 253.165C610.499 260.505 603.841 268.232 594.686 275.611L595.314 276.389C604.548 268.946 611.259 261.154 617.58 253.817L616.822 253.165ZM578.663 293.529C560.624 299.952 554.304 311.522 544.749 328.971L545.626 329.451C555.193 311.981 561.357 300.753 578.998 294.471L578.663 293.529ZM544.749 328.971C543.73 330.832 542.674 332.759 541.563 334.757L542.437 335.243C543.55 333.242 544.607 331.312 545.626 329.451L544.749 328.971ZM578.831 294.5C591.042 294.5 601.47 295.486 611.353 296.42L611.447 295.425C601.565 294.49 591.094 293.5 578.831 293.5V294.5ZM611.353 296.42C629.596 298.145 645.976 299.696 668.115 294.487L667.885 293.513C645.92 298.682 629.683 297.149 611.447 295.425L611.353 296.42Z" fill="black"/>
          </g>
          <g id="Arvore1" filter="url(#filter2_d_4_2)">
          <path d="M759 124H771.75H787.25L771.75 92.5H787.25L765.25 48L742 92.5H759L742 124H759Z" fill="#9AB981"/>
          <path d="M759 138.5H771.75L771.75 124H759L759 138.5Z" fill="#A69D4F"/>
          <path d="M759 138.5L758.5 138.5L758.5 139H759V138.5ZM771.75 138.5V139H772.25L772.25 138.5L771.75 138.5ZM742 124L741.56 123.763L741.162 124.5H742V124ZM759 92.5L759.44 92.7375L759.838 92H759V92.5ZM742 92.5L741.557 92.2685L741.175 93H742V92.5ZM765.25 48L765.698 47.7784L765.262 46.8967L764.807 47.7685L765.25 48ZM787.25 92.5V93H788.055L787.698 92.2784L787.25 92.5ZM771.75 92.5V92H770.947L771.301 92.7208L771.75 92.5ZM787.25 124V124.5H788.053L787.699 123.779L787.25 124ZM759 139H771.75V138H759V139ZM772.25 138.5L772.25 124L771.25 124L771.25 138.5L772.25 138.5ZM771.75 123.5H759V124.5H771.75V123.5ZM758.5 124L758.5 138.5L759.5 138.5L759.5 124L758.5 124ZM759 123.5H742V124.5H759V123.5ZM742.44 124.237L759.44 92.7375L758.56 92.2625L741.56 123.763L742.44 124.237ZM759 92H742V93H759V92ZM742.443 92.7315L765.693 48.2315L764.807 47.7685L741.557 92.2685L742.443 92.7315ZM764.802 48.2216L786.802 92.7216L787.698 92.2784L765.698 47.7784L764.802 48.2216ZM787.25 92H771.75V93H787.25V92ZM771.301 92.7208L786.801 124.221L787.699 123.779L772.199 92.2792L771.301 92.7208ZM787.25 123.5H771.75V124.5H787.25V123.5Z" fill="black"/>
          </g>
          <g id="Arvore2" filter="url(#filter3_d_4_2)">
          <path d="M738.768 137.508H746.094H755L746.094 119.061H755L742.359 93L729 119.061H738.768L729 137.508H738.768Z" fill="#9AB981"/>
          <path d="M738.768 146H746.094L746.094 137.508H738.768L738.768 146Z" fill="#A69D4F"/>
          <path d="M738.768 146L738.268 146L738.268 146.5H738.768V146ZM746.094 146V146.5H746.594L746.594 146L746.094 146ZM729 137.508L728.558 137.274L728.169 138.008H729V137.508ZM738.768 119.061L739.21 119.295L739.598 118.561H738.768V119.061ZM729 119.061L728.555 118.833L728.182 119.561H729V119.061ZM742.359 93L742.809 92.7818L742.371 91.8798L741.914 92.7719L742.359 93ZM755 119.061V119.561H755.798L755.45 118.843L755 119.061ZM746.094 119.061V118.561H745.297L745.644 119.278L746.094 119.061ZM755 137.508V138.008H755.797L755.45 137.291L755 137.508ZM738.768 146.5H746.094V145.5H738.768V146.5ZM746.594 146L746.594 137.508L745.594 137.508L745.594 146L746.594 146ZM746.094 137.008H738.768V138.008H746.094V137.008ZM738.268 137.508L738.268 146L739.268 146L739.268 137.508L738.268 137.508ZM738.768 137.008H729V138.008H738.768V137.008ZM729.442 137.742L739.21 119.295L738.326 118.827L728.558 137.274L729.442 137.742ZM738.768 118.561H729V119.561H738.768V118.561ZM729.445 119.289L742.804 93.2281L741.914 92.7719L728.555 118.833L729.445 119.289ZM741.909 93.2182L754.55 119.279L755.45 118.843L742.809 92.7818L741.909 93.2182ZM755 118.561H746.094V119.561H755V118.561ZM745.644 119.278L754.55 137.726L755.45 137.291L746.544 118.843L745.644 119.278ZM755 137.008H746.094V138.008H755V137.008Z" fill="black"/>
          </g>
          <g id="Arvore3" filter="url(#filter4_d_4_2)">
          <path d="M783.768 118.508H791.094H800L791.094 100.061H800L787.359 74L774 100.061H783.768L774 118.508H783.768Z" fill="#9AB981"/>
          <path d="M783.768 127H791.094L791.094 118.508H783.768L783.768 127Z" fill="#A69D4F"/>
          <path d="M783.768 127L783.268 127L783.268 127.5H783.768V127ZM791.094 127V127.5H791.594L791.594 127L791.094 127ZM774 118.508L773.558 118.274L773.169 119.008H774V118.508ZM783.768 100.061L784.21 100.295L784.598 99.5608H783.768V100.061ZM774 100.061L773.555 99.8327L773.182 100.561H774V100.061ZM787.359 74L787.809 73.7818L787.371 72.8798L786.914 73.7719L787.359 74ZM800 100.061V100.561H800.798L800.45 99.8426L800 100.061ZM791.094 100.061V99.5608H790.297L790.644 100.278L791.094 100.061ZM800 118.508V119.008H800.797L800.45 118.291L800 118.508ZM783.768 127.5H791.094V126.5H783.768V127.5ZM791.594 127L791.594 118.508L790.594 118.508L790.594 127L791.594 127ZM791.094 118.008H783.768V119.008H791.094V118.008ZM783.268 118.508L783.268 127L784.268 127L784.268 118.508L783.268 118.508ZM783.768 118.008H774V119.008H783.768V118.008ZM774.442 118.742L784.21 100.295L783.326 99.8268L773.558 118.274L774.442 118.742ZM783.768 99.5608H774V100.561H783.768V99.5608ZM774.445 100.289L787.804 74.2281L786.914 73.7719L773.555 99.8327L774.445 100.289ZM786.909 74.2182L799.55 100.279L800.45 99.8426L787.809 73.7818L786.909 74.2182ZM800 99.5608H791.094V100.561H800V99.5608ZM790.644 100.278L799.55 118.726L800.45 118.291L791.544 99.8434L790.644 100.278ZM800 118.008H791.094V119.008H800V118.008Z" fill="black"/>
          </g>
          <g id="RafaelPeres">
          <path id="path2167" d="M754.441 148.69C754.115 148.603 753.32 148.241 752.676 147.884L751.505 147.237L750.353 147.838C748.988 148.551 748.328 148.753 747.367 148.753C746.39 148.753 746.236 148.628 746.236 147.837C746.236 147.27 746.255 147.222 746.589 146.922C747.03 146.527 747.885 146.235 748.999 146.097C749.471 146.04 749.882 145.96 749.913 145.92C749.944 145.88 749.893 144.726 749.8 143.356C749.623 140.742 749.636 140.815 748.928 138.708C748.724 138.102 748.688 137.827 748.691 136.873C748.693 136.256 748.734 135.522 748.783 135.241C748.832 134.961 748.898 134.48 748.929 134.171C749.002 133.459 748.882 133.326 747.909 133.056C746.948 132.79 746.356 132.448 745.872 131.878C745.497 131.439 745.348 131.143 744.7 129.561C744.495 129.059 744.394 128.94 743.965 128.694C743.195 128.254 742.877 127.872 742.797 127.291C742.731 126.82 742.743 126.783 743.024 126.532C743.187 126.387 743.32 126.211 743.32 126.141C743.319 126.067 743.438 126.013 743.601 126.013C743.756 126.013 743.883 125.988 743.883 125.957C743.883 125.926 743.612 125.491 743.279 124.99C742.469 123.766 742.369 123.26 742.938 123.26C743.317 123.26 743.722 123.802 743.979 124.653C744.094 125.036 744.226 125.394 744.272 125.447C744.319 125.503 744.355 125.138 744.355 124.581C744.357 123.594 744.452 123.22 744.754 123.016C744.989 122.856 745.241 123.055 745.276 123.428C745.292 123.593 745.217 124.152 745.11 124.671C744.899 125.701 744.923 125.851 745.352 126.19L745.6 126.386L745.448 126.954C745.232 127.757 745.257 128.249 745.55 128.989C746.159 130.525 746.775 131.379 747.542 131.747C748.016 131.974 749.277 132.104 749.86 131.985C750.162 131.924 750.947 131.299 750.94 131.126C750.938 131.09 750.773 130.979 750.571 130.878C749.782 130.483 748.263 128.616 747.528 127.135C746.938 125.948 746.776 125.231 746.816 123.991C746.848 122.99 746.878 122.842 747.191 122.138C747.611 121.192 748.086 120.591 748.815 120.081C749.589 119.539 750.407 119.282 751.352 119.285C752.254 119.288 752.763 119.401 753.44 119.748C755.87 120.994 756.712 124.038 755.405 126.849C754.724 128.314 753.392 130.051 752.438 130.721C752.005 131.026 751.994 131.044 752.132 131.272C752.375 131.673 752.844 131.991 753.563 132.242C754.321 132.507 754.478 132.671 754.786 133.517C755.209 134.682 755.296 137.129 754.954 138.306C754.76 138.975 754.287 139.741 753.897 140.019C753.672 140.179 753.56 140.359 753.483 140.69C753.38 141.133 753.11 144.679 753.108 145.603L753.107 146.072L753.821 146.137C755.048 146.249 756.146 146.641 756.593 147.126C756.839 147.392 756.858 148.452 756.622 148.664C756.399 148.865 755.158 148.879 754.441 148.69V148.69Z" fill="#261500"/>
          <path id="path2165" d="M750.6 126.76C750.571 125.034 749.379 123.681 747.799 123.582L747.15 123.541L747.212 123.96C747.447 125.553 748.345 126.73 749.765 127.305C750.586 127.638 750.616 127.619 750.6 126.76V126.76ZM752.985 127.324C754.337 126.783 755.079 125.915 755.496 124.389C755.733 123.526 755.739 123.537 755.01 123.582C753.418 123.679 752.288 124.948 752.186 126.753C752.135 127.67 752.131 127.667 752.985 127.324V127.324Z" fill="#FF6B00"/>
          </g>
          <g id="Netbook" clip-path="url(#clip1_4_2)">
          <g id="layer1">
          <g id="g4919">
          <g id="g3731">
          <g id="path4815" filter="url(#filter5_f_4_2)">
          <path d="M765.24 135.516L765.158 135.598L764.378 139.647C774.335 141.18 764.628 138.689 764.181 139.818C764.13 139.961 764.165 140.043 764.165 140.043L764.176 140.044C764.168 140.047 764.121 140.066 764.031 140.101C763.934 140.139 763.8 140.192 763.652 140.25C763.505 140.309 763.344 140.373 763.193 140.433C763.042 140.494 762.901 140.552 762.793 140.598C762.362 140.781 761.604 141.146 761.604 141.146C761.604 141.146 761.637 141.15 761.639 141.151C761.621 141.169 761.6 141.192 761.59 141.21C761.57 141.244 761.557 141.323 761.557 141.323L762.486 141.461L762.744 141.554L768.827 142.456L769.109 142.463L769.12 142.449L769.243 142.467L769.237 142.479C769.237 142.479 769.299 142.509 769.504 142.424C769.566 142.399 769.769 142.276 770.021 142.119C770.041 142.134 770.07 142.142 770.115 142.119C770.217 142.067 771.068 141.485 771.068 141.485L771.078 141.443C771.295 141.303 771.439 141.209 771.461 141.195C771.49 141.223 771.553 141.218 771.596 141.216C771.603 141.216 771.609 141.216 771.615 141.216C771.739 141.216 771.819 141.052 771.816 140.849C771.812 140.657 771.757 140.586 771.679 140.529L771.668 140.541L771.678 140.529L771.63 140.523C771.623 140.521 771.617 140.519 771.61 140.517L771.653 140.522L772.442 135.912L765.24 135.516ZM763.867 141.443C763.864 141.446 763.862 141.448 763.859 141.451L763.855 141.451L763.867 141.443Z" fill="white" fill-opacity="0.76"/>
          </g>
          <path id="path4817" d="M765.065 135.377L764.983 135.459L764.203 139.508C774.16 141.041 764.453 138.55 764.006 139.679C763.954 139.823 763.989 139.904 763.989 139.904L764.001 139.905C763.993 139.909 763.945 139.927 763.855 139.962C763.758 140 763.624 140.053 763.477 140.112C763.33 140.17 763.169 140.234 763.018 140.295C762.867 140.356 762.726 140.414 762.618 140.459C762.187 140.643 761.429 141.007 761.429 141.007C761.429 141.007 761.462 141.012 761.464 141.012C761.445 141.03 761.424 141.053 761.414 141.071C761.395 141.106 761.381 141.184 761.381 141.184L762.311 141.323L762.569 141.415L768.652 142.317L768.933 142.325L768.945 142.311L769.067 142.329L769.061 142.34C769.061 142.34 769.124 142.371 769.329 142.285C769.391 142.26 769.594 142.138 769.846 141.98C769.865 141.996 769.895 142.003 769.94 141.98C770.042 141.928 770.893 141.347 770.893 141.347L770.902 141.305C771.12 141.164 771.264 141.07 771.286 141.056C771.315 141.084 771.378 141.079 771.421 141.077C771.427 141.077 771.434 141.077 771.439 141.077C771.564 141.077 771.644 140.913 771.64 140.71C771.637 140.519 771.582 140.447 771.504 140.39L771.493 140.402L771.502 140.391L771.455 140.385C771.448 140.382 771.441 140.38 771.435 140.378L771.478 140.383L772.266 135.773L765.065 135.377ZM763.692 141.304C763.689 141.307 763.687 141.31 763.684 141.312L763.68 141.312L763.692 141.304Z" fill="black"/>
          <path id="path4819" d="M765.065 135.377L764.983 135.459L764.203 139.508L771.478 140.383L772.266 135.773L765.065 135.377L765.065 135.377ZM765.057 135.713L771.995 136.17L771.314 140.054L764.384 139.253L765.057 135.713V135.713Z" fill="url(#paint0_linear_4_2)"/>
          <path id="path4821" d="M765.058 135.714L764.385 139.254L771.315 140.054L771.996 136.17L765.058 135.714V135.714ZM765.419 135.863L771.528 136.268L770.872 139.919L764.811 139.254L765.419 135.863L765.419 135.863Z" fill="url(#paint1_linear_4_2)" stroke="url(#paint2_linear_4_2)" stroke-width="0.53295"/>
          <path id="path4823" d="M765.419 135.864L764.811 139.254L770.871 139.92L771.528 136.268L765.419 135.864Z" fill="url(#paint3_radial_4_2)"/>
          <path id="path4825" opacity="0.95" d="M764.014 139.901C764.014 139.901 763.953 139.924 763.856 139.962C763.759 140 763.625 140.053 763.478 140.111C763.331 140.169 763.17 140.234 763.019 140.294C762.868 140.355 762.727 140.413 762.619 140.459C762.188 140.642 761.43 141.007 761.43 141.007C761.43 141.007 762.566 141.158 763.68 141.312L763.805 141.234L765.837 141.546L765.743 141.608C767.223 141.826 769.199 142.123 769.199 142.123L771.254 140.8C771.254 140.8 770.666 140.708 769.862 140.599C768.958 140.478 767.826 140.346 767.185 140.267C766.544 140.187 764.014 139.901 764.014 139.901L764.014 139.901Z" fill="url(#paint4_linear_4_2)"/>
          <path id="path4827" d="M764.208 139.509C764.208 139.509 764.059 139.537 764.007 139.68C763.956 139.823 763.991 139.904 763.991 139.904L764.002 139.906C764.003 139.906 764.014 139.901 764.014 139.901C764.014 139.901 766.544 140.188 767.185 140.268C767.826 140.347 768.959 140.479 769.862 140.6C770.666 140.708 771.255 140.801 771.255 140.801L771.234 140.815L771.257 140.818C771.257 140.818 771.238 140.662 771.298 140.533C771.359 140.405 771.479 140.421 771.479 140.421L771.504 140.391L764.208 139.509Z" fill="url(#paint5_linear_4_2)"/>
          <path id="path4829" d="M763.809 141.204L765.841 141.511L766.363 141.193L764.366 140.918L763.809 141.204Z" fill="url(#paint6_linear_4_2)" stroke="#393939" stroke-opacity="0.25" stroke-width="0.53295"/>
          <path id="path4831" d="M763.805 141.236L763.804 141.237L763.693 141.305C763.684 141.313 763.677 141.32 763.674 141.326C763.658 141.36 763.677 141.38 763.677 141.38L764.695 141.519V141.518L764.689 141.517C764.689 141.517 764.684 141.497 764.697 141.475V141.474L764.698 141.473C764.699 141.472 764.699 141.471 764.7 141.47C764.717 141.446 764.804 141.389 764.804 141.389L763.805 141.236L763.805 141.236Z" fill="url(#paint7_linear_4_2)"/>
          <path id="path4833" d="M764.804 141.389C764.804 141.389 764.717 141.446 764.7 141.47C764.683 141.494 764.689 141.517 764.689 141.517L765.724 141.658C765.724 141.658 765.718 141.632 765.74 141.612C765.741 141.611 765.742 141.61 765.743 141.609H765.744L765.747 141.606C765.764 141.594 765.787 141.578 765.809 141.566L765.837 141.548L764.804 141.389H764.804Z" fill="url(#paint8_linear_4_2)"/>
          <path id="path4835" d="M768.934 142.325L768.652 142.317L762.569 141.415L762.27 141.308L768.96 142.293L768.934 142.325" fill="white" fill-opacity="0.76"/>
          <path id="path4837" d="M761.496 140.983C761.496 140.983 761.435 141.037 761.415 141.072C761.396 141.106 761.383 141.185 761.383 141.185L769.081 142.331L769.194 142.121L765.738 141.614C765.719 141.634 765.724 141.658 765.724 141.658L764.695 141.517V141.518L763.677 141.38C763.677 141.38 763.658 141.359 763.674 141.326C763.676 141.322 763.68 141.318 763.685 141.313L761.496 140.983ZM764.698 141.472L764.697 141.473V141.474C764.697 141.474 764.698 141.473 764.698 141.472V141.472Z" fill="url(#paint9_linear_4_2)"/>
          <path id="path4839" d="M770.926 141.202L770.893 141.347C770.893 141.347 770.042 141.928 769.94 141.98C769.837 142.032 769.814 141.926 769.814 141.926L770.926 141.202Z" fill="#202020"/>
          <path id="path4841" d="M771.236 140.787L771.223 140.795C771.225 140.796 771.234 140.797 771.235 140.797L771.236 140.787H771.236ZM771.234 140.813L769.199 142.123C769.199 142.123 769.196 142.123 769.192 142.122L769.081 142.33L769.069 142.328L769.063 142.34C769.063 142.34 769.125 142.37 769.33 142.285C769.536 142.2 771.312 141.04 771.312 141.04L771.315 140.767L771.234 140.813Z" fill="#B3B7BA" fill-opacity="0.95294"/>
          <path id="path4843" d="M765.213 135.535C765.213 135.57 765.182 135.599 765.143 135.599C765.104 135.599 765.073 135.57 765.073 135.535C765.073 135.5 765.104 135.471 765.143 135.471C765.182 135.471 765.213 135.5 765.213 135.535Z" fill="black"/>
          <path id="path4845" d="M764.442 139.399C764.442 139.435 764.411 139.463 764.372 139.463C764.333 139.463 764.302 139.435 764.302 139.399C764.302 139.364 764.333 139.336 764.372 139.336C764.411 139.336 764.442 139.364 764.442 139.399Z" fill="black"/>
          <path id="path4847" d="M771.415 140.198C771.415 140.233 771.384 140.262 771.345 140.262C771.306 140.262 771.275 140.233 771.275 140.198C771.275 140.163 771.306 140.134 771.345 140.134C771.384 140.134 771.415 140.163 771.415 140.198Z" fill="black"/>
          <path id="path4849" d="M772.186 135.886C772.186 135.922 772.155 135.95 772.116 135.95C772.077 135.95 772.046 135.922 772.046 135.886C772.046 135.851 772.077 135.823 772.116 135.823C772.155 135.823 772.186 135.851 772.186 135.886Z" fill="black"/>
          <path id="path4851" opacity="0.5" d="M765.419 135.864L764.811 139.254L770.871 139.92L771.528 136.268L765.419 135.864Z" fill="url(#paint10_linear_4_2)"/>
          <path id="path4853" d="M768.207 135.576L768.146 135.824L768.459 135.843L768.52 135.593L768.207 135.576Z" fill="#545456"/>
          <path id="rect4855" d="M766.895 135.57L766.719 135.565C766.698 135.564 766.68 135.579 766.679 135.598C766.679 135.617 766.695 135.633 766.716 135.634L766.892 135.64C766.913 135.64 766.931 135.625 766.931 135.606C766.932 135.587 766.916 135.571 766.895 135.57Z" fill="black"/>
          <path id="rect4857" d="M770.118 135.729L769.942 135.724C769.921 135.723 769.903 135.738 769.903 135.757C769.902 135.777 769.918 135.793 769.939 135.793L770.115 135.799C770.136 135.799 770.154 135.784 770.155 135.765C770.155 135.746 770.139 135.73 770.118 135.729Z" fill="black"/>
          <path id="path4859" d="M764.599 139.556C764.588 139.568 764.573 139.586 764.558 139.606C764.527 139.647 764.493 139.699 764.48 139.747C764.46 139.822 764.463 139.918 764.465 139.952C764.471 139.953 764.482 139.954 764.489 139.955C764.488 139.928 764.484 139.827 764.504 139.752C764.515 139.71 764.548 139.658 764.579 139.618C764.601 139.589 764.618 139.57 764.627 139.559L764.599 139.556V139.556ZM764.941 139.597C764.931 139.609 764.921 139.622 764.909 139.638C764.877 139.679 764.843 139.731 764.83 139.779C764.808 139.863 764.814 139.971 764.815 139.992C764.826 139.993 764.83 139.994 764.84 139.995C764.84 139.985 764.832 139.867 764.854 139.784C764.865 139.742 764.898 139.69 764.929 139.65C764.944 139.63 764.958 139.613 764.969 139.601L764.941 139.597V139.597ZM770.435 140.261C770.426 140.271 770.409 140.289 770.387 140.318C770.357 140.357 770.323 140.408 770.311 140.455C770.293 140.523 770.291 140.614 770.291 140.658C770.299 140.659 770.308 140.66 770.316 140.662C770.316 140.62 770.318 140.526 770.335 140.46C770.346 140.418 770.378 140.369 770.407 140.331C770.436 140.293 770.463 140.266 770.463 140.266L770.461 140.264L770.435 140.261V140.261ZM770.777 140.302C770.766 140.315 770.751 140.333 770.735 140.354C770.704 140.395 770.669 140.448 770.657 140.495C770.634 140.58 770.64 140.69 770.642 140.709C770.65 140.71 770.658 140.711 770.667 140.712C770.666 140.705 770.658 140.585 770.68 140.501C770.692 140.459 770.725 140.407 770.755 140.367C770.779 140.335 770.797 140.315 770.806 140.306L770.777 140.302V140.302Z" fill="white" fill-opacity="0.76"/>
          <path id="path4861" opacity="0.5" d="M765.419 135.864L765.235 136.889L768.02 137.185L771.3 137.534L771.528 136.268L765.419 135.864Z" fill="url(#paint11_linear_4_2)"/>
          <path id="path4863" d="M771.401 140.373C771.393 140.373 771.385 140.374 771.378 140.375L771.456 140.385C771.438 140.377 771.42 140.373 771.401 140.373V140.373ZM771.492 140.405L771.479 140.421C771.479 140.421 771.359 140.404 771.298 140.533C771.247 140.642 771.253 140.765 771.256 140.801L771.315 140.768L771.312 141.04C771.312 141.04 771.289 141.055 771.287 141.056C771.316 141.084 771.379 141.079 771.422 141.078C771.429 141.077 771.435 141.077 771.44 141.077C771.565 141.077 771.645 140.913 771.642 140.71C771.638 140.519 771.583 140.447 771.505 140.39L771.492 140.405Z" fill="#CCCCCC"/>
          <path id="path4865" d="M762.475 140.642L769.777 141.631L771.05 140.863L764.045 139.932L762.475 140.642Z" fill="#EAEAEB"/>
          <path id="path4867" d="M769.415 142.101L769.406 142.182L769.893 141.883L769.89 141.822L769.415 142.101Z" fill="black"/>
          <path id="path4869" d="M770.015 141.822L770.167 141.722L770.174 141.62L770.008 141.722L770.015 141.822Z" fill="black"/>
          <path id="path4871" d="M770.663 141.285L770.849 141.167L770.832 141.354L770.67 141.473L770.663 141.285Z" fill="#214478"/>
          <path id="path4873" d="M770.286 141.719L770.266 141.611L770.584 141.406V141.544L770.286 141.719Z" fill="#1C241F"/>
          <g id="path4875" filter="url(#filter6_f_4_2)">
          <path d="M767.863 141.876C767.862 141.876 767.861 141.876 767.86 141.876C767.857 141.877 767.854 141.878 767.852 141.88C767.849 141.882 767.847 141.884 767.846 141.887L767.767 142.049C767.764 142.05 767.762 142.052 767.761 142.055C767.759 142.057 767.758 142.06 767.758 142.063V142.069L767.795 142.076L767.882 141.901C767.883 141.899 767.884 141.896 767.884 141.892C767.884 141.889 767.882 141.886 767.881 141.884C767.879 141.881 767.876 141.879 767.873 141.878C767.87 141.876 767.866 141.876 767.863 141.876V141.876ZM768.02 141.902C768.018 141.902 768.017 141.902 768.016 141.902C768.013 141.903 768.01 141.904 768.007 141.906C768.005 141.908 768.003 141.91 768.002 141.913L767.922 142.075C767.92 142.076 767.918 142.078 767.916 142.081C767.915 142.083 767.914 142.086 767.914 142.089V142.095L767.951 142.102L768.037 141.927C768.038 141.925 768.039 141.922 768.039 141.919C768.039 141.916 768.038 141.913 768.036 141.91C768.034 141.908 768.032 141.906 768.029 141.904C768.026 141.903 768.023 141.902 768.02 141.902V141.902ZM768.183 141.926C768.179 141.927 768.176 141.928 768.173 141.93C768.171 141.931 768.168 141.934 768.167 141.937L768.088 142.099C768.085 142.1 768.083 142.102 768.082 142.105C768.08 142.107 768.079 142.11 768.079 142.113V142.119L768.116 142.126L768.203 141.951C768.204 141.948 768.205 141.945 768.204 141.942C768.204 141.939 768.203 141.936 768.201 141.934C768.199 141.931 768.196 141.929 768.193 141.928C768.19 141.926 768.186 141.926 768.183 141.926V141.926ZM768.335 141.95C768.332 141.951 768.328 141.952 768.325 141.954C768.323 141.956 768.32 141.958 768.319 141.961L768.24 142.122C768.237 142.124 768.235 142.126 768.234 142.129C768.232 142.132 768.231 142.135 768.232 142.137V142.143L768.269 142.15L768.355 141.975C768.356 141.973 768.357 141.97 768.357 141.967C768.356 141.964 768.355 141.961 768.354 141.958C768.352 141.956 768.349 141.954 768.347 141.952C768.344 141.951 768.34 141.95 768.337 141.95C768.337 141.95 768.336 141.95 768.335 141.95V141.95ZM768.508 141.974C768.507 141.974 768.506 141.975 768.505 141.975C768.502 141.975 768.499 141.977 768.497 141.978C768.495 141.98 768.493 141.983 768.492 141.985L768.413 142.146C768.41 142.148 768.408 142.15 768.406 142.153C768.405 142.155 768.404 142.158 768.404 142.161V142.167L768.441 142.174L768.527 142C768.528 141.997 768.529 141.994 768.529 141.991C768.529 141.988 768.527 141.985 768.526 141.982C768.524 141.979 768.521 141.977 768.518 141.976C768.515 141.975 768.511 141.974 768.508 141.974V141.974ZM768.66 142.005C768.656 142.005 768.653 142.006 768.65 142.008C768.647 142.01 768.645 142.012 768.644 142.015L768.565 142.176C768.562 142.178 768.56 142.18 768.559 142.183C768.557 142.185 768.556 142.188 768.556 142.191V142.197L768.593 142.205L768.679 142.03C768.68 142.027 768.681 142.024 768.681 142.021C768.68 142.018 768.679 142.015 768.677 142.012C768.675 142.01 768.673 142.008 768.67 142.006C768.667 142.005 768.663 142.004 768.66 142.005V142.005Z" fill="#868382"/>
          </g>
          <path id="path4877" d="M771.633 140.781C771.624 140.941 771.551 141.067 771.468 141.064C771.385 141.06 771.325 140.927 771.334 140.767C771.342 140.607 771.416 140.481 771.499 140.484C771.581 140.488 771.641 140.621 771.633 140.781Z" fill="#868382"/>
          <g id="path4879" filter="url(#filter7_f_4_2)">
          <path d="M771.499 140.479C771.416 140.475 771.343 140.602 771.334 140.762C771.33 140.834 771.34 140.901 771.36 140.952C771.349 140.908 771.344 140.858 771.347 140.804C771.356 140.644 771.43 140.517 771.512 140.521C771.558 140.523 771.596 140.564 771.62 140.627C771.599 140.541 771.554 140.481 771.499 140.479V140.479Z" fill="white" fill-opacity="0.76"/>
          </g>
          <g id="path4881" opacity="0.60535" filter="url(#filter8_f_4_2)">
          <path d="M771.618 140.8C771.611 140.918 771.555 141.011 771.493 141.007C771.431 141.003 771.386 140.904 771.393 140.785C771.4 140.667 771.456 140.575 771.518 140.579C771.58 140.583 771.625 140.682 771.618 140.8Z" fill="black"/>
          </g>
          <g id="path4883" opacity="0.85619" filter="url(#filter9_f_4_2)">
          <path d="M763.681 141.223L764.224 140.933L763.357 140.812L763.681 141.223Z" fill="white" fill-opacity="0.76"/>
          </g>
          <g id="path4885" opacity="0.66221" filter="url(#filter10_f_4_2)">
          <path d="M769.032 142.131L769.02 142.085L769.063 142.073L761.582 140.993L761.556 141.026L761.563 141.065L769.032 142.131Z" fill="white" fill-opacity="0.76"/>
          </g>
          <g id="path4887" opacity="0.78261" filter="url(#filter11_f_4_2)">
          <path d="M764.243 139.608L764.124 139.705V139.838L771.075 140.513L764.243 139.608Z" fill="url(#paint12_linear_4_2)"/>
          </g>
          <g id="path4889" opacity="0.93645" filter="url(#filter12_f_4_2)">
          <path d="M765.156 135.397L765.09 135.482L772.12 135.868L772.16 135.796L765.156 135.397Z" fill="url(#paint13_linear_4_2)"/>
          </g>
          </g>
          </g>
          </g>
          </g>
          <g id="Nuvem" filter="url(#filter13_d_4_2)">
          <path d="M440.547 122.046C451.032 95.2806 474.476 85.9648 479.225 116.439C495.405 84.4013 506.939 106.247 504.965 120.107C527.292 73.2878 582.105 106.855 529.936 146.897C553.696 150.282 540.44 185.137 506.893 170.381C512.051 193.481 491.043 194.268 477.159 178.929C479.104 186.349 440.657 241.472 422.402 192.687C399.427 208.605 360.782 183.735 406.903 156.135C386.449 111.501 413.107 87.6202 440.547 122.046Z" fill="white"/>
          <path d="M479.225 116.439C474.476 85.9648 451.032 95.2806 440.547 122.046C413.107 87.6202 386.449 111.501 406.903 156.135C360.782 183.735 399.427 208.605 422.402 192.687C441.635 244.084 483.279 180.148 476.49 178.171C490.355 194.288 512.134 193.855 506.893 170.381C540.44 185.137 553.696 150.282 529.936 146.897C582.105 106.855 527.292 73.2878 504.965 120.107C506.939 106.247 495.405 84.4013 479.225 116.439Z" stroke="black"/>
          </g>
          </g>
          <defs>
          <filter id="filter0_di_4_2" x="-25.5" y="64.9552" width="955.584" height="395.045" filterUnits="userSpaceOnUse" color-interpolation-filters="sRGB">
          <feFlood flood-opacity="0" result="BackgroundImageFix"/>
          <feColorMatrix in="SourceAlpha" type="matrix" values="0 0 0 0 0 0 0 0 0 0 0 0 0 0 0 0 0 0 127 0" result="hardAlpha"/>
          <feOffset dy="-15"/>
          <feGaussianBlur stdDeviation="2"/>
          <feComposite in2="hardAlpha" operator="out"/>
          <feColorMatrix type="matrix" values="0 0 0 0 0 0 0 0 0 0 0 0 0 0 0 0 0 0 0.8 0"/>
          <feBlend mode="normal" in2="BackgroundImageFix" result="effect1_dropShadow_4_2"/>
          <feBlend mode="normal" in="SourceGraphic" in2="effect1_dropShadow_4_2" result="shape"/>
          <feColorMatrix in="SourceAlpha" type="matrix" values="0 0 0 0 0 0 0 0 0 0 0 0 0 0 0 0 0 0 127 0" result="hardAlpha"/>
          <feOffset dy="4"/>
          <feGaussianBlur stdDeviation="2"/>
          <feComposite in2="hardAlpha" operator="arithmetic" k2="-1" k3="1"/>
          <feColorMatrix type="matrix" values="0 0 0 0 0 0 0 0 0 0 0 0 0 0 0 0 0 0 0.25 0"/>
          <feBlend mode="normal" in2="shape" result="effect2_innerShadow_4_2"/>
          </filter>
          <filter id="filter1_di_4_2" x="317.389" y="87.2877" width="513.162" height="381.719" filterUnits="userSpaceOnUse" color-interpolation-filters="sRGB">
          <feFlood flood-opacity="0" result="BackgroundImageFix"/>
          <feColorMatrix in="SourceAlpha" type="matrix" values="0 0 0 0 0 0 0 0 0 0 0 0 0 0 0 0 0 0 127 0" result="hardAlpha"/>
          <feOffset dy="-15"/>
          <feGaussianBlur stdDeviation="2"/>
          <feComposite in2="hardAlpha" operator="out"/>
          <feColorMatrix type="matrix" values="0 0 0 0 0 0 0 0 0 0 0 0 0 0 0 0 0 0 0.5 0"/>
          <feBlend mode="normal" in2="BackgroundImageFix" result="effect1_dropShadow_4_2"/>
          <feBlend mode="normal" in="SourceGraphic" in2="effect1_dropShadow_4_2" result="shape"/>
          <feColorMatrix in="SourceAlpha" type="matrix" values="0 0 0 0 0 0 0 0 0 0 0 0 0 0 0 0 0 0 127 0" result="hardAlpha"/>
          <feOffset dy="4"/>
          <feGaussianBlur stdDeviation="2"/>
          <feComposite in2="hardAlpha" operator="arithmetic" k2="-1" k3="1"/>
          <feColorMatrix type="matrix" values="0 0 0 0 0 0 0 0 0 0 0 0 0 0 0 0 0 0 0.25 0"/>
          <feBlend mode="normal" in2="shape" result="effect2_innerShadow_4_2"/>
          </filter>
          <filter id="filter2_d_4_2" x="737.162" y="32.8967" width="54.8929" height="106.103" filterUnits="userSpaceOnUse" color-interpolation-filters="sRGB">
          <feFlood flood-opacity="0" result="BackgroundImageFix"/>
          <feColorMatrix in="SourceAlpha" type="matrix" values="0 0 0 0 0 0 0 0 0 0 0 0 0 0 0 0 0 0 127 0" result="hardAlpha"/>
          <feOffset dy="-10"/>
          <feGaussianBlur stdDeviation="2"/>
          <feComposite in2="hardAlpha" operator="out"/>
          <feColorMatrix type="matrix" values="0 0 0 0 0 0 0 0 0 0 0 0 0 0 0 0 0 0 0.5 0"/>
          <feBlend mode="normal" in2="BackgroundImageFix" result="effect1_dropShadow_4_2"/>
          <feBlend mode="normal" in="SourceGraphic" in2="effect1_dropShadow_4_2" result="shape"/>
          </filter>
          <filter id="filter3_d_4_2" x="724.169" y="82.8798" width="35.6288" height="63.6202" filterUnits="userSpaceOnUse" color-interpolation-filters="sRGB">
          <feFlood flood-opacity="0" result="BackgroundImageFix"/>
          <feColorMatrix in="SourceAlpha" type="matrix" values="0 0 0 0 0 0 0 0 0 0 0 0 0 0 0 0 0 0 127 0" result="hardAlpha"/>
          <feOffset dy="-5"/>
          <feGaussianBlur stdDeviation="2"/>
          <feComposite in2="hardAlpha" operator="out"/>
          <feColorMatrix type="matrix" values="0 0 0 0 0 0 0 0 0 0 0 0 0 0 0 0 0 0 0.5 0"/>
          <feBlend mode="normal" in2="BackgroundImageFix" result="effect1_dropShadow_4_2"/>
          <feBlend mode="normal" in="SourceGraphic" in2="effect1_dropShadow_4_2" result="shape"/>
          </filter>
          <filter id="filter4_d_4_2" x="769.169" y="63.8798" width="35.6287" height="63.6202" filterUnits="userSpaceOnUse" color-interpolation-filters="sRGB">
          <feFlood flood-opacity="0" result="BackgroundImageFix"/>
          <feColorMatrix in="SourceAlpha" type="matrix" values="0 0 0 0 0 0 0 0 0 0 0 0 0 0 0 0 0 0 127 0" result="hardAlpha"/>
          <feOffset dy="-5"/>
          <feGaussianBlur stdDeviation="2"/>
          <feComposite in2="hardAlpha" operator="out"/>
          <feColorMatrix type="matrix" values="0 0 0 0 0 0 0 0 0 0 0 0 0 0 0 0 0 0 0.5 0"/>
          <feBlend mode="normal" in2="BackgroundImageFix" result="effect1_dropShadow_4_2"/>
          <feBlend mode="normal" in="SourceGraphic" in2="effect1_dropShadow_4_2" result="shape"/>
          </filter>
          <filter id="filter5_f_4_2" x="747.465" y="121.424" width="39.0676" height="35.1513" filterUnits="userSpaceOnUse" color-interpolation-filters="sRGB">
          <feFlood flood-opacity="0" result="BackgroundImageFix"/>
          <feBlend mode="normal" in="SourceGraphic" in2="BackgroundImageFix" result="shape"/>
          <feGaussianBlur stdDeviation="7.04569" result="effect1_foregroundBlur_4_2"/>
          </filter>
          <filter id="filter6_f_4_2" x="767.583" y="141.7" width="1.2735" height="0.68018" filterUnits="userSpaceOnUse" color-interpolation-filters="sRGB">
          <feFlood flood-opacity="0" result="BackgroundImageFix"/>
          <feBlend mode="normal" in="SourceGraphic" in2="BackgroundImageFix" result="shape"/>
          <feGaussianBlur stdDeviation="0.0878155" result="effect1_foregroundBlur_4_2"/>
          </filter>
          <filter id="filter7_f_4_2" x="770.965" y="140.11" width="1.02344" height="1.2099" filterUnits="userSpaceOnUse" color-interpolation-filters="sRGB">
          <feFlood flood-opacity="0" result="BackgroundImageFix"/>
          <feBlend mode="normal" in="SourceGraphic" in2="BackgroundImageFix" result="shape"/>
          <feGaussianBlur stdDeviation="0.184068" result="effect1_foregroundBlur_4_2"/>
          </filter>
          <filter id="filter8_f_4_2" x="770.652" y="139.838" width="1.70709" height="1.90871" filterUnits="userSpaceOnUse" color-interpolation-filters="sRGB">
          <feFlood flood-opacity="0" result="BackgroundImageFix"/>
          <feBlend mode="normal" in="SourceGraphic" in2="BackgroundImageFix" result="shape"/>
          <feGaussianBlur stdDeviation="0.37024" result="effect1_foregroundBlur_4_2"/>
          </filter>
          <filter id="filter9_f_4_2" x="758.727" y="136.183" width="10.1259" height="9.66942" filterUnits="userSpaceOnUse" color-interpolation-filters="sRGB">
          <feFlood flood-opacity="0" result="BackgroundImageFix"/>
          <feBlend mode="normal" in="SourceGraphic" in2="BackgroundImageFix" result="shape"/>
          <feGaussianBlur stdDeviation="2.31468" result="effect1_foregroundBlur_4_2"/>
          </filter>
          <filter id="filter10_f_4_2" x="758.893" y="138.33" width="12.8331" height="6.465" filterUnits="userSpaceOnUse" color-interpolation-filters="sRGB">
          <feFlood flood-opacity="0" result="BackgroundImageFix"/>
          <feBlend mode="normal" in="SourceGraphic" in2="BackgroundImageFix" result="shape"/>
          <feGaussianBlur stdDeviation="1.33163" result="effect1_foregroundBlur_4_2"/>
          </filter>
          <filter id="filter11_f_4_2" x="760.5" y="135.984" width="14.1992" height="8.15342" filterUnits="userSpaceOnUse" color-interpolation-filters="sRGB">
          <feFlood flood-opacity="0" result="BackgroundImageFix"/>
          <feBlend mode="normal" in="SourceGraphic" in2="BackgroundImageFix" result="shape"/>
          <feGaussianBlur stdDeviation="1.81212" result="effect1_foregroundBlur_4_2"/>
          </filter>
          <filter id="filter12_f_4_2" x="762.782" y="133.09" width="11.6846" height="5.08544" filterUnits="userSpaceOnUse" color-interpolation-filters="sRGB">
          <feFlood flood-opacity="0" result="BackgroundImageFix"/>
          <feBlend mode="normal" in="SourceGraphic" in2="BackgroundImageFix" result="shape"/>
          <feGaussianBlur stdDeviation="1.15372" result="effect1_foregroundBlur_4_2"/>
          </filter>
          <filter id="filter13_d_4_2" x="378.809" y="96.8109" width="175.463" height="135.321" filterUnits="userSpaceOnUse" color-interpolation-filters="sRGB">
          <feFlood flood-opacity="0" result="BackgroundImageFix"/>
          <feColorMatrix in="SourceAlpha" type="matrix" values="0 0 0 0 0 0 0 0 0 0 0 0 0 0 0 0 0 0 127 0" result="hardAlpha"/>
          <feOffset dx="-2" dy="15"/>
          <feGaussianBlur stdDeviation="2"/>
          <feComposite in2="hardAlpha" operator="out"/>
          <feColorMatrix type="matrix" values="0 0 0 0 0 0 0 0 0 0 0 0 0 0 0 0 0 0 1 0"/>
          <feBlend mode="normal" in2="BackgroundImageFix" result="effect1_dropShadow_4_2"/>
          <feBlend mode="normal" in="SourceGraphic" in2="effect1_dropShadow_4_2" result="shape"/>
          </filter>
          <linearGradient id="paint0_linear_4_2" x1="764.556" y1="137.416" x2="771.845" y2="138.369" gradientUnits="userSpaceOnUse">
          <stop stop-color="#818181"/>
          <stop offset="0.04" stop-color="#C0C0C0"/>
          <stop offset="0.06" stop-color="#CCCCCC"/>
          <stop offset="0.2" stop-color="#989898"/>
          <stop offset="0.875" stop-color="#646464"/>
          <stop offset="1" stop-color="#313131"/>
          </linearGradient>
          <linearGradient id="paint1_linear_4_2" x1="771.618" y1="138.423" x2="764.713" y2="137.613" gradientUnits="userSpaceOnUse">
          <stop stop-color="#3F3B3C"/>
          <stop offset="1" stop-color="#6F6D6D"/>
          </linearGradient>
          <linearGradient id="paint2_linear_4_2" x1="764.697" y1="137.749" x2="772.005" y2="137.912" gradientUnits="userSpaceOnUse">
          <stop stop-color="#393939"/>
          <stop offset="1" stop-color="#050F00"/>
          </linearGradient>
          <radialGradient id="paint3_radial_4_2" cx="0" cy="0" r="1" gradientUnits="userSpaceOnUse" gradientTransform="translate(764.821 139.238) rotate(7.87342) scale(9.99436 5.16207)">
          <stop stop-color="#FF8A00"/>
          <stop offset="1" stop-color="#FD9C43"/>
          </radialGradient>
          <linearGradient id="paint4_linear_4_2" x1="762.627" y1="140.324" x2="770.539" y2="141.651" gradientUnits="userSpaceOnUse">
          <stop stop-color="#EFEFEF"/>
          <stop offset="1" stop-color="#B1B5B8"/>
          </linearGradient>
          <linearGradient id="paint5_linear_4_2" x1="763.933" y1="139.732" x2="771.242" y2="140.747" gradientUnits="userSpaceOnUse">
          <stop stop-color="#EFEFEF"/>
          <stop offset="1" stop-color="#B1B5B8"/>
          </linearGradient>
          <linearGradient id="paint6_linear_4_2" x1="763.799" y1="141.215" x2="766.371" y2="141.215" gradientUnits="userSpaceOnUse">
          <stop stop-color="#C0C0C0"/>
          <stop offset="1" stop-color="#949693"/>
          </linearGradient>
          <linearGradient id="paint7_linear_4_2" x1="763.658" y1="141.375" x2="764.823" y2="141.375" gradientUnits="userSpaceOnUse">
          <stop stop-color="#C0C0C0"/>
          <stop offset="1" stop-color="#949693"/>
          </linearGradient>
          <linearGradient id="paint8_linear_4_2" x1="764.68" y1="141.526" x2="765.843" y2="141.526" gradientUnits="userSpaceOnUse">
          <stop stop-color="#C0C0C0"/>
          <stop offset="1" stop-color="#949693"/>
          </linearGradient>
          <linearGradient id="paint9_linear_4_2" x1="761.343" y1="141.102" x2="769.284" y2="142.5" gradientUnits="userSpaceOnUse">
          <stop stop-color="#E2E7EB"/>
          <stop offset="1" stop-color="#BCC0C3"/>
          </linearGradient>
          <linearGradient id="paint10_linear_4_2" x1="768.159" y1="136.054" x2="767.68" y2="139.587" gradientUnits="userSpaceOnUse">
          <stop stop-color="#F4EED7" stop-opacity="0.50754"/>
          <stop offset="0.5" stop-color="#F4EED7" stop-opacity="0"/>
          <stop offset="1" stop-color="#F4EED7" stop-opacity="0.52261"/>
          </linearGradient>
          <linearGradient id="paint11_linear_4_2" x1="768.292" y1="134.869" x2="768.739" y2="137.533" gradientUnits="userSpaceOnUse">
          <stop stop-color="white"/>
          <stop offset="1" stop-color="white" stop-opacity="0"/>
          </linearGradient>
          <linearGradient id="paint12_linear_4_2" x1="765.899" y1="139.939" x2="772.309" y2="140.895" gradientUnits="userSpaceOnUse">
          <stop stop-color="white"/>
          <stop offset="1" stop-color="white" stop-opacity="0"/>
          </linearGradient>
          <linearGradient id="paint13_linear_4_2" x1="765.17" y1="135.439" x2="773.053" y2="136.005" gradientUnits="userSpaceOnUse">
          <stop stop-color="white"/>
          <stop offset="1" stop-color="white" stop-opacity="0"/>
          </linearGradient>
          <clipPath id="clip0_4_2">
          <rect width="800" height="450" fill="white"/>
          </clipPath>
          <clipPath id="clip1_4_2">
          <rect width="12" height="8" fill="white" transform="translate(761 135)"/>
          </clipPath>
          </defs>
          </svg>
