<svg width="410" height="369" viewBox="0 0 410 369" fill="none" xmlns="http://www.w3.org/2000/svg">
<g id="Frame 1">
<g id="Estrelas">
<g id="Star 1">
<mask id="path-1-inside-1_3_2" fill="white">
<path d="M180 312C180 312 180.331 315.09 181.621 316.379C182.91 317.669 186 318 186 318C186 318 182.91 318.331 181.621 319.621C180.331 320.91 180 324 180 324C180 324 179.669 320.91 178.379 319.621C177.09 318.331 174 318 174 318C174 318 177.09 317.669 178.379 316.379C179.669 315.09 180 312 180 312Z"/>
</mask>
<path d="M180 312C180 312 180.331 315.09 181.621 316.379C182.91 317.669 186 318 186 318C186 318 182.91 318.331 181.621 319.621C180.331 320.91 180 324 180 324C180 324 179.669 320.91 178.379 319.621C177.09 318.331 174 318 174 318C174 318 177.09 317.669 178.379 316.379C179.669 315.09 180 312 180 312Z" fill="#FAE319" stroke="#858585" stroke-width="2" mask="url(#path-1-inside-1_3_2)"/>
</g>
<g id="Star 2">
<mask id="path-2-inside-2_3_2" fill="white">
<path d="M370.5 317C370.5 317 370.859 320.347 372.256 321.744C373.653 323.141 377 323.5 377 323.5C377 323.5 373.653 323.859 372.256 325.256C370.859 326.653 370.5 330 370.5 330C370.5 330 370.141 326.653 368.744 325.256C367.347 323.859 364 323.5 364 323.5C364 323.5 367.347 323.141 368.744 321.744C370.141 320.347 370.5 317 370.5 317Z"/>
</mask>
<path d="M370.5 317C370.5 317 370.859 320.347 372.256 321.744C373.653 323.141 377 323.5 377 323.5C377 323.5 373.653 323.859 372.256 325.256C370.859 326.653 370.5 330 370.5 330C370.5 330 370.141 326.653 368.744 325.256C367.347 323.859 364 323.5 364 323.5C364 323.5 367.347 323.141 368.744 321.744C370.141 320.347 370.5 317 370.5 317Z" fill="#FAE319" stroke="#858585" stroke-width="2" mask="url(#path-2-inside-2_3_2)"/>
</g>
<g id="Star 3">
<mask id="path-3-inside-3_3_2" fill="white">
<path d="M72.5 55C72.5 55 73.0242 59.8924 75.0659 61.9341C77.1076 63.9758 82 64.5 82 64.5C82 64.5 77.1076 65.0242 75.0659 67.0659C73.0242 69.1076 72.5 74 72.5 74C72.5 74 71.9758 69.1076 69.9341 67.0659C67.8924 65.0242 63 64.5 63 64.5C63 64.5 67.8924 63.9758 69.9341 61.9341C71.9758 59.8924 72.5 55 72.5 55Z"/>
</mask>
<path d="M72.5 55C72.5 55 73.0242 59.8924 75.0659 61.9341C77.1076 63.9758 82 64.5 82 64.5C82 64.5 77.1076 65.0242 75.0659 67.0659C73.0242 69.1076 72.5 74 72.5 74C72.5 74 71.9758 69.1076 69.9341 67.0659C67.8924 65.0242 63 64.5 63 64.5C63 64.5 67.8924 63.9758 69.9341 61.9341C71.9758 59.8924 72.5 55 72.5 55Z" fill="#FAE319" stroke="#858585" stroke-width="2" mask="url(#path-3-inside-3_3_2)"/>
</g>
<g id="Star 4">
<mask id="path-4-inside-4_3_2" fill="white">
<path d="M302.5 153C302.5 153 303.024 157.892 305.066 159.934C307.108 161.976 312 162.5 312 162.5C312 162.5 307.108 163.024 305.066 165.066C303.024 167.108 302.5 172 302.5 172C302.5 172 301.976 167.108 299.934 165.066C297.892 163.024 293 162.5 293 162.5C293 162.5 297.892 161.976 299.934 159.934C301.976 157.892 302.5 153 302.5 153Z"/>
</mask>
<path d="M302.5 153C302.5 153 303.024 157.892 305.066 159.934C307.108 161.976 312 162.5 312 162.5C312 162.5 307.108 163.024 305.066 165.066C303.024 167.108 302.5 172 302.5 172C302.5 172 301.976 167.108 299.934 165.066C297.892 163.024 293 162.5 293 162.5C293 162.5 297.892 161.976 299.934 159.934C301.976 157.892 302.5 153 302.5 153Z" fill="#FAE319" stroke="#858585" stroke-width="2" mask="url(#path-4-inside-4_3_2)"/>
</g>
<g id="Star 5">
<mask id="path-5-inside-5_3_2" fill="white">
<path d="M363.5 79C363.5 79 363.859 82.3475 365.256 83.7444C366.653 85.1414 370 85.5 370 85.5C370 85.5 366.653 85.8586 365.256 87.2556C363.859 88.6525 363.5 92 363.5 92C363.5 92 363.141 88.6525 361.744 87.2556C360.347 85.8586 357 85.5 357 85.5C357 85.5 360.347 85.1414 361.744 83.7444C363.141 82.3475 363.5 79 363.5 79Z"/>
</mask>
<path d="M363.5 79C363.5 79 363.859 82.3475 365.256 83.7444C366.653 85.1414 370 85.5 370 85.5C370 85.5 366.653 85.8586 365.256 87.2556C363.859 88.6525 363.5 92 363.5 92C363.5 92 363.141 88.6525 361.744 87.2556C360.347 85.8586 357 85.5 357 85.5C357 85.5 360.347 85.1414 361.744 83.7444C363.141 82.3475 363.5 79 363.5 79Z" fill="#FAE319" stroke="#858585" stroke-width="2" mask="url(#path-5-inside-5_3_2)"/>
</g>
<g id="Star 7">
<mask id="path-6-inside-6_3_2" fill="white">
<path d="M134.5 159C134.5 159 134.859 162.347 136.256 163.744C137.653 165.141 141 165.5 141 165.5C141 165.5 137.653 165.859 136.256 167.256C134.859 168.653 134.5 172 134.5 172C134.5 172 134.141 168.653 132.744 167.256C131.347 165.859 128 165.5 128 165.5C128 165.5 131.347 165.141 132.744 163.744C134.141 162.347 134.5 159 134.5 159Z"/>
</mask>
<path d="M134.5 159C134.5 159 134.859 162.347 136.256 163.744C137.653 165.141 141 165.5 141 165.5C141 165.5 137.653 165.859 136.256 167.256C134.859 168.653 134.5 172 134.5 172C134.5 172 134.141 168.653 132.744 167.256C131.347 165.859 128 165.5 128 165.5C128 165.5 131.347 165.141 132.744 163.744C134.141 162.347 134.5 159 134.5 159Z" fill="#FAE319" stroke="#858585" stroke-width="2" mask="url(#path-6-inside-6_3_2)"/>
</g>
<g id="Star 8">
<mask id="path-7-inside-7_3_2" fill="white">
<path d="M363.5 164C363.5 164 363.859 167.09 365.256 168.379C366.653 169.669 370 170 370 170C370 170 366.653 170.331 365.256 171.621C363.859 172.91 363.5 176 363.5 176C363.5 176 363.141 172.91 361.744 171.621C360.347 170.331 357 170 357 170C357 170 360.347 169.669 361.744 168.379C363.141 167.09 363.5 164 363.5 164Z"/>
</mask>
<path d="M363.5 164C363.5 164 363.859 167.09 365.256 168.379C366.653 169.669 370 170 370 170C370 170 366.653 170.331 365.256 171.621C363.859 172.91 363.5 176 363.5 176C363.5 176 363.141 172.91 361.744 171.621C360.347 170.331 357 170 357 170C357 170 360.347 169.669 361.744 168.379C363.141 167.09 363.5 164 363.5 164Z" fill="#FAE319" stroke="#858585" stroke-width="2" mask="url(#path-7-inside-7_3_2)"/>
</g>
<g id="Star 9">
<mask id="path-8-inside-8_3_2" fill="white">
<path d="M107.5 198C107.5 198 107.859 201.347 109.256 202.744C110.653 204.141 114 204.5 114 204.5C114 204.5 110.653 204.859 109.256 206.256C107.859 207.653 107.5 211 107.5 211C107.5 211 107.141 207.653 105.744 206.256C104.347 204.859 101 204.5 101 204.5C101 204.5 104.347 204.141 105.744 202.744C107.141 201.347 107.5 198 107.5 198Z"/>
</mask>
<path d="M107.5 198C107.5 198 107.859 201.347 109.256 202.744C110.653 204.141 114 204.5 114 204.5C114 204.5 110.653 204.859 109.256 206.256C107.859 207.653 107.5 211 107.5 211C107.5 211 107.141 207.653 105.744 206.256C104.347 204.859 101 204.5 101 204.5C101 204.5 104.347 204.141 105.744 202.744C107.141 201.347 107.5 198 107.5 198Z" fill="#FAE319" stroke="#858585" stroke-width="2" mask="url(#path-8-inside-8_3_2)"/>
</g>
<g id="Star 10">
<mask id="path-9-inside-9_3_2" fill="white">
<path d="M37 77C37 77 37.3311 80.09 38.6205 81.3795C39.91 82.6689 43 83 43 83C43 83 39.91 83.3311 38.6205 84.6205C37.3311 85.91 37 89 37 89C37 89 36.6689 85.91 35.3795 84.6205C34.09 83.3311 31 83 31 83C31 83 34.09 82.6689 35.3795 81.3795C36.6689 80.09 37 77 37 77Z"/>
</mask>
<path d="M37 77C37 77 37.3311 80.09 38.6205 81.3795C39.91 82.6689 43 83 43 83C43 83 39.91 83.3311 38.6205 84.6205C37.3311 85.91 37 89 37 89C37 89 36.6689 85.91 35.3795 84.6205C34.09 83.3311 31 83 31 83C31 83 34.09 82.6689 35.3795 81.3795C36.6689 80.09 37 77 37 77Z" fill="#FAE319" stroke="#858585" stroke-width="2" mask="url(#path-9-inside-9_3_2)"/>
</g>
<g id="Star 11">
<mask id="path-10-inside-10_3_2" fill="white">
<path d="M318.5 293C318.5 293 318.859 296.347 320.256 297.744C321.653 299.141 325 299.5 325 299.5C325 299.5 321.653 299.859 320.256 301.256C318.859 302.653 318.5 306 318.5 306C318.5 306 318.141 302.653 316.744 301.256C315.347 299.859 312 299.5 312 299.5C312 299.5 315.347 299.141 316.744 297.744C318.141 296.347 318.5 293 318.5 293Z"/>
</mask>
<path d="M318.5 293C318.5 293 318.859 296.347 320.256 297.744C321.653 299.141 325 299.5 325 299.5C325 299.5 321.653 299.859 320.256 301.256C318.859 302.653 318.5 306 318.5 306C318.5 306 318.141 302.653 316.744 301.256C315.347 299.859 312 299.5 312 299.5C312 299.5 315.347 299.141 316.744 297.744C318.141 296.347 318.5 293 318.5 293Z" fill="#FAE319" stroke="#858585" stroke-width="2" mask="url(#path-10-inside-10_3_2)"/>
</g>
<g id="Star 12">
<mask id="path-11-inside-11_3_2" fill="white">
<path d="M241.5 51C241.5 51 241.859 54.3475 243.256 55.7444C244.653 57.1414 248 57.5 248 57.5C248 57.5 244.653 57.8586 243.256 59.2556C241.859 60.6525 241.5 64 241.5 64C241.5 64 241.141 60.6525 239.744 59.2556C238.347 57.8586 235 57.5 235 57.5C235 57.5 238.347 57.1414 239.744 55.7444C241.141 54.3475 241.5 51 241.5 51Z"/>
</mask>
<path d="M241.5 51C241.5 51 241.859 54.3475 243.256 55.7444C244.653 57.1414 248 57.5 248 57.5C248 57.5 244.653 57.8586 243.256 59.2556C241.859 60.6525 241.5 64 241.5 64C241.5 64 241.141 60.6525 239.744 59.2556C238.347 57.8586 235 57.5 235 57.5C235 57.5 238.347 57.1414 239.744 55.7444C241.141 54.3475 241.5 51 241.5 51Z" fill="#FAE319" stroke="#858585" stroke-width="2" mask="url(#path-11-inside-11_3_2)"/>
</g>
<g id="Star 13">
<mask id="path-12-inside-12_3_2" fill="white">
<path d="M88.5 252C88.5 252 88.8586 255.347 90.2556 256.744C91.6525 258.141 95 258.5 95 258.5C95 258.5 91.6525 258.859 90.2556 260.256C88.8586 261.653 88.5 265 88.5 265C88.5 265 88.1414 261.653 86.7444 260.256C85.3475 258.859 82 258.5 82 258.5C82 258.5 85.3475 258.141 86.7444 256.744C88.1414 255.347 88.5 252 88.5 252Z"/>
</mask>
<path d="M88.5 252C88.5 252 88.8586 255.347 90.2556 256.744C91.6525 258.141 95 258.5 95 258.5C95 258.5 91.6525 258.859 90.2556 260.256C88.8586 261.653 88.5 265 88.5 265C88.5 265 88.1414 261.653 86.7444 260.256C85.3475 258.859 82 258.5 82 258.5C82 258.5 85.3475 258.141 86.7444 256.744C88.1414 255.347 88.5 252 88.5 252Z" fill="#FAE319" stroke="#858585" stroke-width="2" mask="url(#path-12-inside-12_3_2)"/>
</g>
<g id="Star 14">
<mask id="path-13-inside-13_3_2" fill="white">
<path d="M364 245C364 245 364.331 248.347 365.621 249.744C366.91 251.141 370 251.5 370 251.5C370 251.5 366.91 251.859 365.621 253.256C364.331 254.653 364 258 364 258C364 258 363.669 254.653 362.379 253.256C361.09 251.859 358 251.5 358 251.5C358 251.5 361.09 251.141 362.379 249.744C363.669 248.347 364 245 364 245Z"/>
</mask>
<path d="M364 245C364 245 364.331 248.347 365.621 249.744C366.91 251.141 370 251.5 370 251.5C370 251.5 366.91 251.859 365.621 253.256C364.331 254.653 364 258 364 258C364 258 363.669 254.653 362.379 253.256C361.09 251.859 358 251.5 358 251.5C358 251.5 361.09 251.141 362.379 249.744C363.669 248.347 364 245 364 245Z" fill="#FAE319" stroke="#858585" stroke-width="2" mask="url(#path-13-inside-13_3_2)"/>
</g>
<g id="Star 15">
<mask id="path-14-inside-14_3_2" fill="white">
<path d="M284 211C284 211 284.331 214.347 285.621 215.744C286.91 217.141 290 217.5 290 217.5C290 217.5 286.91 217.859 285.621 219.256C284.331 220.653 284 224 284 224C284 224 283.669 220.653 282.379 219.256C281.09 217.859 278 217.5 278 217.5C278 217.5 281.09 217.141 282.379 215.744C283.669 214.347 284 211 284 211Z"/>
</mask>
<path d="M284 211C284 211 284.331 214.347 285.621 215.744C286.91 217.141 290 217.5 290 217.5C290 217.5 286.91 217.859 285.621 219.256C284.331 220.653 284 224 284 224C284 224 283.669 220.653 282.379 219.256C281.09 217.859 278 217.5 278 217.5C278 217.5 281.09 217.141 282.379 215.744C283.669 214.347 284 211 284 211Z" fill="#FAE319" stroke="#858585" stroke-width="2" mask="url(#path-14-inside-14_3_2)"/>
</g>
<g id="Star 16">
<mask id="path-15-inside-15_3_2" fill="white">
<path d="M278 265C278 265 278.331 268.347 279.621 269.744C280.91 271.141 284 271.5 284 271.5C284 271.5 280.91 271.859 279.621 273.256C278.331 274.653 278 278 278 278C278 278 277.669 274.653 276.379 273.256C275.09 271.859 272 271.5 272 271.5C272 271.5 275.09 271.141 276.379 269.744C277.669 268.347 278 265 278 265Z"/>
</mask>
<path d="M278 265C278 265 278.331 268.347 279.621 269.744C280.91 271.141 284 271.5 284 271.5C284 271.5 280.91 271.859 279.621 273.256C278.331 274.653 278 278 278 278C278 278 277.669 274.653 276.379 273.256C275.09 271.859 272 271.5 272 271.5C272 271.5 275.09 271.141 276.379 269.744C277.669 268.347 278 265 278 265Z" fill="#FAE319" stroke="#858585" stroke-width="2" mask="url(#path-15-inside-15_3_2)"/>
</g>
<g id="Star 17">
<mask id="path-16-inside-16_3_2" fill="white">
<path d="M150 233C150 233 150.331 236.347 151.621 237.744C152.91 239.141 156 239.5 156 239.5C156 239.5 152.91 239.859 151.621 241.256C150.331 242.653 150 246 150 246C150 246 149.669 242.653 148.379 241.256C147.09 239.859 144 239.5 144 239.5C144 239.5 147.09 239.141 148.379 237.744C149.669 236.347 150 233 150 233Z"/>
</mask>
<path d="M150 233C150 233 150.331 236.347 151.621 237.744C152.91 239.141 156 239.5 156 239.5C156 239.5 152.91 239.859 151.621 241.256C150.331 242.653 150 246 150 246C150 246 149.669 242.653 148.379 241.256C147.09 239.859 144 239.5 144 239.5C144 239.5 147.09 239.141 148.379 237.744C149.669 236.347 150 233 150 233Z" fill="#FAE319" stroke="#858585" stroke-width="2" mask="url(#path-16-inside-16_3_2)"/>
</g>
<g id="Star 18">
<mask id="path-17-inside-17_3_2" fill="white">
<path d="M43.5 287C43.5 287 43.8586 290.09 45.2556 291.379C46.6525 292.669 50 293 50 293C50 293 46.6525 293.331 45.2556 294.621C43.8586 295.91 43.5 299 43.5 299C43.5 299 43.1414 295.91 41.7444 294.621C40.3475 293.331 37 293 37 293C37 293 40.3475 292.669 41.7444 291.379C43.1414 290.09 43.5 287 43.5 287Z"/>
</mask>
<path d="M43.5 287C43.5 287 43.8586 290.09 45.2556 291.379C46.6525 292.669 50 293 50 293C50 293 46.6525 293.331 45.2556 294.621C43.8586 295.91 43.5 299 43.5 299C43.5 299 43.1414 295.91 41.7444 294.621C40.3475 293.331 37 293 37 293C37 293 40.3475 292.669 41.7444 291.379C43.1414 290.09 43.5 287 43.5 287Z" fill="#FAE319" stroke="#858585" stroke-width="2" mask="url(#path-17-inside-17_3_2)"/>
</g>
<g id="Star 19">
<mask id="path-18-inside-18_3_2" fill="white">
<path d="M218 184C218 184 218.276 186.575 219.35 187.65C220.425 188.724 223 189 223 189C223 189 220.425 189.276 219.35 190.35C218.276 191.425 218 194 218 194C218 194 217.724 191.425 216.65 190.35C215.575 189.276 213 189 213 189C213 189 215.575 188.724 216.65 187.65C217.724 186.575 218 184 218 184Z"/>
</mask>
<path d="M218 184C218 184 218.276 186.575 219.35 187.65C220.425 188.724 223 189 223 189C223 189 220.425 189.276 219.35 190.35C218.276 191.425 218 194 218 194C218 194 217.724 191.425 216.65 190.35C215.575 189.276 213 189 213 189C213 189 215.575 188.724 216.65 187.65C217.724 186.575 218 184 218 184Z" fill="#FAE319" stroke="#858585" stroke-width="2" mask="url(#path-18-inside-18_3_2)"/>
</g>
<g id="Star 20">
<mask id="path-19-inside-19_3_2" fill="white">
<path d="M27 132C27 132 27.3311 135.09 28.6205 136.379C29.91 137.669 33 138 33 138C33 138 29.91 138.331 28.6205 139.621C27.3311 140.91 27 144 27 144C27 144 26.6689 140.91 25.3795 139.621C24.09 138.331 21 138 21 138C21 138 24.09 137.669 25.3795 136.379C26.6689 135.09 27 132 27 132Z"/>
</mask>
<path d="M27 132C27 132 27.3311 135.09 28.6205 136.379C29.91 137.669 33 138 33 138C33 138 29.91 138.331 28.6205 139.621C27.3311 140.91 27 144 27 144C27 144 26.6689 140.91 25.3795 139.621C24.09 138.331 21 138 21 138C21 138 24.09 137.669 25.3795 136.379C26.6689 135.09 27 132 27 132Z" fill="#FAE319" stroke="#858585" stroke-width="2" mask="url(#path-19-inside-19_3_2)"/>
</g>
<g id="Star 21">
<mask id="path-20-inside-20_3_2" fill="white">
<path d="M205.5 105C205.5 105 205.859 108.347 207.256 109.744C208.653 111.141 212 111.5 212 111.5C212 111.5 208.653 111.859 207.256 113.256C205.859 114.653 205.5 118 205.5 118C205.5 118 205.141 114.653 203.744 113.256C202.347 111.859 199 111.5 199 111.5C199 111.5 202.347 111.141 203.744 109.744C205.141 108.347 205.5 105 205.5 105Z"/>
</mask>
<path d="M205.5 105C205.5 105 205.859 108.347 207.256 109.744C208.653 111.141 212 111.5 212 111.5C212 111.5 208.653 111.859 207.256 113.256C205.859 114.653 205.5 118 205.5 118C205.5 118 205.141 114.653 203.744 113.256C202.347 111.859 199 111.5 199 111.5C199 111.5 202.347 111.141 203.744 109.744C205.141 108.347 205.5 105 205.5 105Z" fill="#FAE319" stroke="#858585" stroke-width="2" mask="url(#path-20-inside-20_3_2)"/>
</g>
<g id="Star 22">
<mask id="path-21-inside-21_3_2" fill="white">
<path d="M107.5 304C107.5 304 107.859 307.347 109.256 308.744C110.653 310.141 114 310.5 114 310.5C114 310.5 110.653 310.859 109.256 312.256C107.859 313.653 107.5 317 107.5 317C107.5 317 107.141 313.653 105.744 312.256C104.347 310.859 101 310.5 101 310.5C101 310.5 104.347 310.141 105.744 308.744C107.141 307.347 107.5 304 107.5 304Z"/>
</mask>
<path d="M107.5 304C107.5 304 107.859 307.347 109.256 308.744C110.653 310.141 114 310.5 114 310.5C114 310.5 110.653 310.859 109.256 312.256C107.859 313.653 107.5 317 107.5 317C107.5 317 107.141 313.653 105.744 312.256C104.347 310.859 101 310.5 101 310.5C101 310.5 104.347 310.141 105.744 308.744C107.141 307.347 107.5 304 107.5 304Z" fill="#FAE319" stroke="#858585" stroke-width="2" mask="url(#path-21-inside-21_3_2)"/>
</g>
<g id="Star 6">
<mask id="path-22-inside-22_3_2" fill="white">
<path d="M110.5 92C110.5 92 110.859 95.3475 112.256 96.7444C113.653 98.1414 117 98.5 117 98.5C117 98.5 113.653 98.8586 112.256 100.256C110.859 101.653 110.5 105 110.5 105C110.5 105 110.141 101.653 108.744 100.256C107.347 98.8586 104 98.5 104 98.5C104 98.5 107.347 98.1414 108.744 96.7444C110.141 95.3475 110.5 92 110.5 92Z"/>
</mask>
<path d="M110.5 92C110.5 92 110.859 95.3475 112.256 96.7444C113.653 98.1414 117 98.5 117 98.5C117 98.5 113.653 98.8586 112.256 100.256C110.859 101.653 110.5 105 110.5 105C110.5 105 110.141 101.653 108.744 100.256C107.347 98.8586 104 98.5 104 98.5C104 98.5 107.347 98.1414 108.744 96.7444C110.141 95.3475 110.5 92 110.5 92Z" fill="#FAE319" stroke="#858585" stroke-width="2" mask="url(#path-22-inside-22_3_2)"/>
</g>
<g id="Star 6_2">
<mask id="path-23-inside-23_3_2" fill="white">
<path d="M69.5 153C69.5 153 69.8586 156.347 71.2556 157.744C72.6525 159.141 76 159.5 76 159.5C76 159.5 72.6525 159.859 71.2556 161.256C69.8586 162.653 69.5 166 69.5 166C69.5 166 69.1414 162.653 67.7444 161.256C66.3475 159.859 63 159.5 63 159.5C63 159.5 66.3475 159.141 67.7444 157.744C69.1414 156.347 69.5 153 69.5 153Z"/>
</mask>
<path d="M69.5 153C69.5 153 69.8586 156.347 71.2556 157.744C72.6525 159.141 76 159.5 76 159.5C76 159.5 72.6525 159.859 71.2556 161.256C69.8586 162.653 69.5 166 69.5 166C69.5 166 69.1414 162.653 67.7444 161.256C66.3475 159.859 63 159.5 63 159.5C63 159.5 66.3475 159.141 67.7444 157.744C69.1414 156.347 69.5 153 69.5 153Z" fill="#FAE319" stroke="#858585" stroke-width="2" mask="url(#path-23-inside-23_3_2)"/>
</g>
<g id="Star 6_3">
<mask id="path-24-inside-24_3_2" fill="white">
<path d="M276.5 95C276.5 95 276.803 97.575 277.985 98.6495C279.168 99.7241 282 100 282 100C282 100 279.168 100.276 277.985 101.35C276.803 102.425 276.5 105 276.5 105C276.5 105 276.197 102.425 275.015 101.35C273.832 100.276 271 100 271 100C271 100 273.832 99.7241 275.015 98.6495C276.197 97.575 276.5 95 276.5 95Z"/>
</mask>
<path d="M276.5 95C276.5 95 276.803 97.575 277.985 98.6495C279.168 99.7241 282 100 282 100C282 100 279.168 100.276 277.985 101.35C276.803 102.425 276.5 105 276.5 105C276.5 105 276.197 102.425 275.015 101.35C273.832 100.276 271 100 271 100C271 100 273.832 99.7241 275.015 98.6495C276.197 97.575 276.5 95 276.5 95Z" fill="#FAE319" stroke="#858585" stroke-width="2" mask="url(#path-24-inside-24_3_2)"/>
</g>
<g id="Star 6_4">
<mask id="path-25-inside-25_3_2" fill="white">
<path d="M46.5 330C46.5 330 46.8035 333.09 47.9855 334.379C49.1675 335.669 52 336 52 336C52 336 49.1675 336.331 47.9855 337.621C46.8035 338.91 46.5 342 46.5 342C46.5 342 46.1965 338.91 45.0145 337.621C43.8325 336.331 41 336 41 336C41 336 43.8325 335.669 45.0145 334.379C46.1965 333.09 46.5 330 46.5 330Z"/>
</mask>
<path d="M46.5 330C46.5 330 46.8035 333.09 47.9855 334.379C49.1675 335.669 52 336 52 336C52 336 49.1675 336.331 47.9855 337.621C46.8035 338.91 46.5 342 46.5 342C46.5 342 46.1965 338.91 45.0145 337.621C43.8325 336.331 41 336 41 336C41 336 43.8325 335.669 45.0145 334.379C46.1965 333.09 46.5 330 46.5 330Z" fill="#FAE319" stroke="#858585" stroke-width="2" mask="url(#path-25-inside-25_3_2)"/>
</g>
<g id="Star 6_5">
<mask id="path-26-inside-26_3_2" fill="white">
<path d="M248 111C248 111 248.717 117.695 251.511 120.489C254.305 123.283 261 124 261 124C261 124 254.305 124.717 251.511 127.511C248.717 130.305 248 137 248 137C248 137 247.283 130.305 244.489 127.511C241.695 124.717 235 124 235 124C235 124 241.695 123.283 244.489 120.489C247.283 117.695 248 111 248 111Z"/>
</mask>
<path d="M248 111C248 111 248.717 117.695 251.511 120.489C254.305 123.283 261 124 261 124C261 124 254.305 124.717 251.511 127.511C248.717 130.305 248 137 248 137C248 137 247.283 130.305 244.489 127.511C241.695 124.717 235 124 235 124C235 124 241.695 123.283 244.489 120.489C247.283 117.695 248 111 248 111Z" fill="#FAE319" stroke="#858585" stroke-width="2" mask="url(#path-26-inside-26_3_2)"/>
</g>
<g id="Star 6_6">
<mask id="path-27-inside-27_3_2" fill="white">
<path d="M173.5 64C173.5 64 174.19 70.4374 176.876 73.1239C179.563 75.8103 186 76.5 186 76.5C186 76.5 179.563 77.1897 176.876 79.8761C174.19 82.5626 173.5 89 173.5 89C173.5 89 172.81 82.5626 170.124 79.8761C167.437 77.1897 161 76.5 161 76.5C161 76.5 167.437 75.8103 170.124 73.1239C172.81 70.4374 173.5 64 173.5 64Z"/>
</mask>
<path d="M173.5 64C173.5 64 174.19 70.4374 176.876 73.1239C179.563 75.8103 186 76.5 186 76.5C186 76.5 179.563 77.1897 176.876 79.8761C174.19 82.5626 173.5 89 173.5 89C173.5 89 172.81 82.5626 170.124 79.8761C167.437 77.1897 161 76.5 161 76.5C161 76.5 167.437 75.8103 170.124 73.1239C172.81 70.4374 173.5 64 173.5 64Z" fill="#FAE319" stroke="#858585" stroke-width="2" mask="url(#path-27-inside-27_3_2)"/>
</g>
<g id="Star 6_7">
<mask id="path-28-inside-28_3_2" fill="white">
<path d="M330.5 53C330.5 53 331.19 59.6949 333.876 62.4888C336.563 65.2827 343 66 343 66C343 66 336.563 66.7173 333.876 69.5112C331.19 72.3051 330.5 79 330.5 79C330.5 79 329.81 72.3051 327.124 69.5112C324.437 66.7173 318 66 318 66C318 66 324.437 65.2827 327.124 62.4888C329.81 59.6949 330.5 53 330.5 53Z"/>
</mask>
<path d="M330.5 53C330.5 53 331.19 59.6949 333.876 62.4888C336.563 65.2827 343 66 343 66C343 66 336.563 66.7173 333.876 69.5112C331.19 72.3051 330.5 79 330.5 79C330.5 79 329.81 72.3051 327.124 69.5112C324.437 66.7173 318 66 318 66C318 66 324.437 65.2827 327.124 62.4888C329.81 59.6949 330.5 53 330.5 53Z" fill="#FAE319" stroke="#858585" stroke-width="2" mask="url(#path-28-inside-28_3_2)"/>
</g>
<g id="Star 6_8">
<mask id="path-29-inside-29_3_2" fill="white">
<path d="M192.5 253C192.5 253 193.19 259.437 195.876 262.124C198.563 264.81 205 265.5 205 265.5C205 265.5 198.563 266.19 195.876 268.876C193.19 271.563 192.5 278 192.5 278C192.5 278 191.81 271.563 189.124 268.876C186.437 266.19 180 265.5 180 265.5C180 265.5 186.437 264.81 189.124 262.124C191.81 259.437 192.5 253 192.5 253Z"/>
</mask>
<path d="M192.5 253C192.5 253 193.19 259.437 195.876 262.124C198.563 264.81 205 265.5 205 265.5C205 265.5 198.563 266.19 195.876 268.876C193.19 271.563 192.5 278 192.5 278C192.5 278 191.81 271.563 189.124 268.876C186.437 266.19 180 265.5 180 265.5C180 265.5 186.437 264.81 189.124 262.124C191.81 259.437 192.5 253 192.5 253Z" fill="#FAE319" stroke="#858585" stroke-width="2" mask="url(#path-29-inside-29_3_2)"/>
</g>
<g id="Star 6_9">
<mask id="path-30-inside-30_3_2" fill="white">
<path d="M33.5 207C33.5 207 34.1897 213.695 36.8761 216.489C39.5626 219.283 46 220 46 220C46 220 39.5626 220.717 36.8761 223.511C34.1897 226.305 33.5 233 33.5 233C33.5 233 32.8103 226.305 30.1239 223.511C27.4374 220.717 21 220 21 220C21 220 27.4374 219.283 30.1239 216.489C32.8103 213.695 33.5 207 33.5 207Z"/>
</mask>
<path d="M33.5 207C33.5 207 34.1897 213.695 36.8761 216.489C39.5626 219.283 46 220 46 220C46 220 39.5626 220.717 36.8761 223.511C34.1897 226.305 33.5 233 33.5 233C33.5 233 32.8103 226.305 30.1239 223.511C27.4374 220.717 21 220 21 220C21 220 27.4374 219.283 30.1239 216.489C32.8103 213.695 33.5 207 33.5 207Z" fill="#FAE319" stroke="#858585" stroke-width="2" mask="url(#path-30-inside-30_3_2)"/>
</g>
</g>
</g>
</svg>
