<svg  viewBox="0 0 387 149" fill="none" xmlns="http://www.w3.org/2000/svg">
<g clip-path="url(#clip0_1_2)">
<g filter="url(#filter0_d_1_2)">
<mask id="path-1-inside-1_1_2" fill="white">
<path d="M138 118.5C138 132.583 126.583 144 112.5 144C98.4167 144 87 132.583 87 118.5C87 104.417 98.4167 93 112.5 93C126.583 93 138 104.417 138 118.5ZM97.6671 118.5C97.6671 126.692 104.308 133.333 112.5 133.333C120.692 133.333 127.333 126.692 127.333 118.5C127.333 110.308 120.692 103.667 112.5 103.667C104.308 103.667 97.6671 110.308 97.6671 118.5Z"/>
</mask>
<path d="M138 118.5C138 132.583 126.583 144 112.5 144C98.4167 144 87 132.583 87 118.5C87 104.417 98.4167 93 112.5 93C126.583 93 138 104.417 138 118.5ZM97.6671 118.5C97.6671 126.692 104.308 133.333 112.5 133.333C120.692 133.333 127.333 126.692 127.333 118.5C127.333 110.308 120.692 103.667 112.5 103.667C104.308 103.667 97.6671 110.308 97.6671 118.5Z" fill="#FC6A03"/>
<path d="M138 118.5C138 132.583 126.583 144 112.5 144C98.4167 144 87 132.583 87 118.5C87 104.417 98.4167 93 112.5 93C126.583 93 138 104.417 138 118.5ZM97.6671 118.5C97.6671 126.692 104.308 133.333 112.5 133.333C120.692 133.333 127.333 126.692 127.333 118.5C127.333 110.308 120.692 103.667 112.5 103.667C104.308 103.667 97.6671 110.308 97.6671 118.5Z" stroke="black" stroke-width="3" mask="url(#path-1-inside-1_1_2)"/>
</g>
<line x1="98.6" y1="103.7" x2="101.6" y2="99.7" stroke="black"/>
<line x1="98.3866" y1="99.6829" x2="101.558" y2="103.549" stroke="black"/>
<path d="M79.113 60.961C80.1571 60.0732 83.9417 55 85.6382 55C87.3348 55 88.9789 58.6331 91.1194 60.961C98.8439 72.8576 97.6741 77.2624 85.6382 81C67.2371 78.9707 78.069 61.8488 79.113 60.961Z" stroke="black" stroke-width="3"/>
<rect x="84.5" y="11.5" width="2" height="38" fill="#020000" stroke="black"/>
<path d="M81 58L89 55" stroke="black" stroke-width="4" stroke-linecap="round"/>
<path d="M81 52L89 49" stroke="black" stroke-width="4" stroke-linecap="round"/>
<path d="M81 55L89 52" stroke="black" stroke-width="4" stroke-linecap="round"/>
<rect x="21.6996" y="44.4505" width="44.8272" height="6.22135" transform="rotate(-36.638 21.6996 44.4505)" fill="#996B43" stroke="black"/>
<g filter="url(#filter1_d_1_2)">
<rect y="9" width="102" height="16" fill="#BA8C63"/>
<rect x="1" y="10" width="100" height="14" stroke="black" stroke-width="2"/>
</g>
<g filter="url(#filter2_d_1_2)">
<rect x="11" width="19" height="144" fill="#BA8C63"/>
<rect x="12" y="1" width="17" height="142" stroke="black" stroke-width="2"/>
</g>
<g filter="url(#filter3_d_1_2)">
<rect x="18" y="77" width="37" height="13" fill="#7E6044"/>
<rect x="18.5" y="77.5" width="36" height="12" stroke="black"/>
</g>
<circle cx="20.5" cy="87.5" r="0.5" fill="black"/>
<circle cx="20.5" cy="79.5" r="0.5" fill="black"/>
<g filter="url(#filter4_d_1_2)">
<rect x="165" y="58" width="15" height="86" fill="#BA8C63"/>
<rect x="166" y="59" width="13" height="84" stroke="black" stroke-width="2"/>
</g>
<g filter="url(#filter5_d_1_2)">
<rect x="217" y="61" width="15" height="62" transform="rotate(90 217 61)" fill="#BA8C63"/>
<rect x="216" y="62" width="13" height="60" transform="rotate(90 216 62)" stroke="black" stroke-width="2"/>
</g>
<circle cx="173" cy="72" r="1" fill="black"/>
<circle cx="173" cy="65" r="1" fill="black"/>
<rect x="177.7" y="96.4505" width="44.8272" height="6.22135" transform="rotate(-36.638 177.7 96.4505)" fill="#996B43" stroke="black"/>
<g filter="url(#filter6_d_1_2)">
<rect x="175.419" y="107" width="55.4325" height="5.71822" transform="rotate(36.7181 175.419 107)" fill="#996B43"/>
<rect x="175.521" y="107.7" width="54.4325" height="4.71822" transform="rotate(36.7181 175.521 107.7)" stroke="black"/>
</g>
<circle cx="213" cy="73" r="1" fill="black"/>
<path d="M177.927 93L178.955 101.498" stroke="#0B0A0A" stroke-width="3" stroke-linecap="round"/>
<path d="M180.882 93.7334L181.911 102.231" stroke="#0B0A0A" stroke-width="3" stroke-linecap="round"/>
<line x1="176.97" y1="99.0336" x2="165.188" y2="96.7573" stroke="black" stroke-width="3" stroke-linecap="round"/>
<line x1="176.97" y1="96.0336" x2="165.188" y2="93.7573" stroke="black" stroke-width="3" stroke-linecap="round"/>
<circle cx="176" cy="111" r="1" fill="black"/>
<g filter="url(#filter7_d_1_2)">
<rect x="253" y="90" width="11" height="54" fill="#996B43"/>
<rect x="254" y="91" width="9" height="52" stroke="black" stroke-width="2"/>
</g>
<g filter="url(#filter8_d_1_2)">
<rect x="295.303" y="92.2898" width="9.54679" height="54" transform="rotate(84.1784 295.303 92.2898)" fill="#BA8C63"/>
<rect x="294.409" y="93.3861" width="7.54679" height="52" transform="rotate(84.1784 294.409 93.3861)" stroke="black" stroke-width="2"/>
</g>
<g filter="url(#filter9_d_1_2)">
<rect x="296.146" y="134.084" width="8.33918" height="54" transform="rotate(95.1252 296.146 134.084)" fill="#BA8C63"/>
<rect x="295.06" y="134.991" width="6.33918" height="52" transform="rotate(95.1252 295.06 134.991)" stroke="black" stroke-width="2"/>
</g>
<circle cx="261" cy="135" r="1" fill="black"/>
<circle cx="257" cy="101" r="1" fill="black"/>
<g filter="url(#filter10_d_1_2)">
<rect x="346.823" y="75" width="11" height="70.356" transform="rotate(18.0701 346.823 75)" fill="#1B6DCB"/>
<rect x="347.464" y="76.2609" width="9" height="68.356" transform="rotate(18.0701 347.464 76.2609)" stroke="black" stroke-width="2"/>
</g>
<g filter="url(#filter11_d_1_2)">
<rect x="339" y="85.9376" width="11" height="70.356" transform="rotate(-26.7114 339 85.9376)" fill="#0A72E9"/>
<rect x="340.343" y="86.3814" width="9" height="68.356" transform="rotate(-26.7114 340.343 86.3814)" stroke="black" stroke-width="2"/>
</g>
<g filter="url(#filter12_d_1_2)">
<rect x="318.474" y="130.536" width="11" height="70.356" transform="rotate(-102.998 318.474 130.536)" fill="#0056B8"/>
<rect x="319.224" y="129.336" width="9" height="68.356" transform="rotate(-102.998 319.224 129.336)" stroke="black" stroke-width="2"/>
</g>
<circle cx="347" cy="90" r="1" fill="black"/>
<circle cx="336" cy="121" r="1" fill="black"/>
<circle cx="361" cy="116" r="1" fill="black"/>
</g>
<defs>
<filter id="filter0_d_1_2" x="83" y="93" width="59" height="59" filterUnits="userSpaceOnUse" color-interpolation-filters="sRGB">
<feFlood flood-opacity="0" result="BackgroundImageFix"/>
<feColorMatrix in="SourceAlpha" type="matrix" values="0 0 0 0 0 0 0 0 0 0 0 0 0 0 0 0 0 0 127 0" result="hardAlpha"/>
<feOffset dy="4"/>
<feGaussianBlur stdDeviation="2"/>
<feComposite in2="hardAlpha" operator="out"/>
<feColorMatrix type="matrix" values="0 0 0 0 0 0 0 0 0 0 0 0 0 0 0 0 0 0 0.25 0"/>
<feBlend mode="normal" in2="BackgroundImageFix" result="effect1_dropShadow_1_2"/>
<feBlend mode="normal" in="SourceGraphic" in2="effect1_dropShadow_1_2" result="shape"/>
</filter>
<filter id="filter1_d_1_2" x="-4" y="9" width="110" height="24" filterUnits="userSpaceOnUse" color-interpolation-filters="sRGB">
<feFlood flood-opacity="0" result="BackgroundImageFix"/>
<feColorMatrix in="SourceAlpha" type="matrix" values="0 0 0 0 0 0 0 0 0 0 0 0 0 0 0 0 0 0 127 0" result="hardAlpha"/>
<feOffset dy="4"/>
<feGaussianBlur stdDeviation="2"/>
<feComposite in2="hardAlpha" operator="out"/>
<feColorMatrix type="matrix" values="0 0 0 0 0 0 0 0 0 0 0 0 0 0 0 0 0 0 0.25 0"/>
<feBlend mode="normal" in2="BackgroundImageFix" result="effect1_dropShadow_1_2"/>
<feBlend mode="normal" in="SourceGraphic" in2="effect1_dropShadow_1_2" result="shape"/>
</filter>
<filter id="filter2_d_1_2" x="7" y="0" width="27" height="152" filterUnits="userSpaceOnUse" color-interpolation-filters="sRGB">
<feFlood flood-opacity="0" result="BackgroundImageFix"/>
<feColorMatrix in="SourceAlpha" type="matrix" values="0 0 0 0 0 0 0 0 0 0 0 0 0 0 0 0 0 0 127 0" result="hardAlpha"/>
<feOffset dy="4"/>
<feGaussianBlur stdDeviation="2"/>
<feComposite in2="hardAlpha" operator="out"/>
<feColorMatrix type="matrix" values="0 0 0 0 0 0 0 0 0 0 0 0 0 0 0 0 0 0 0.25 0"/>
<feBlend mode="normal" in2="BackgroundImageFix" result="effect1_dropShadow_1_2"/>
<feBlend mode="normal" in="SourceGraphic" in2="effect1_dropShadow_1_2" result="shape"/>
</filter>
<filter id="filter3_d_1_2" x="14" y="77" width="45" height="21" filterUnits="userSpaceOnUse" color-interpolation-filters="sRGB">
<feFlood flood-opacity="0" result="BackgroundImageFix"/>
<feColorMatrix in="SourceAlpha" type="matrix" values="0 0 0 0 0 0 0 0 0 0 0 0 0 0 0 0 0 0 127 0" result="hardAlpha"/>
<feOffset dy="4"/>
<feGaussianBlur stdDeviation="2"/>
<feComposite in2="hardAlpha" operator="out"/>
<feColorMatrix type="matrix" values="0 0 0 0 0 0 0 0 0 0 0 0 0 0 0 0 0 0 0.25 0"/>
<feBlend mode="normal" in2="BackgroundImageFix" result="effect1_dropShadow_1_2"/>
<feBlend mode="normal" in="SourceGraphic" in2="effect1_dropShadow_1_2" result="shape"/>
</filter>
<filter id="filter4_d_1_2" x="161" y="58" width="23" height="94" filterUnits="userSpaceOnUse" color-interpolation-filters="sRGB">
<feFlood flood-opacity="0" result="BackgroundImageFix"/>
<feColorMatrix in="SourceAlpha" type="matrix" values="0 0 0 0 0 0 0 0 0 0 0 0 0 0 0 0 0 0 127 0" result="hardAlpha"/>
<feOffset dy="4"/>
<feGaussianBlur stdDeviation="2"/>
<feComposite in2="hardAlpha" operator="out"/>
<feColorMatrix type="matrix" values="0 0 0 0 0 0 0 0 0 0 0 0 0 0 0 0 0 0 0.25 0"/>
<feBlend mode="normal" in2="BackgroundImageFix" result="effect1_dropShadow_1_2"/>
<feBlend mode="normal" in="SourceGraphic" in2="effect1_dropShadow_1_2" result="shape"/>
</filter>
<filter id="filter5_d_1_2" x="151" y="61" width="70" height="23" filterUnits="userSpaceOnUse" color-interpolation-filters="sRGB">
<feFlood flood-opacity="0" result="BackgroundImageFix"/>
<feColorMatrix in="SourceAlpha" type="matrix" values="0 0 0 0 0 0 0 0 0 0 0 0 0 0 0 0 0 0 127 0" result="hardAlpha"/>
<feOffset dy="4"/>
<feGaussianBlur stdDeviation="2"/>
<feComposite in2="hardAlpha" operator="out"/>
<feColorMatrix type="matrix" values="0 0 0 0 0 0 0 0 0 0 0 0 0 0 0 0 0 0 0.25 0"/>
<feBlend mode="normal" in2="BackgroundImageFix" result="effect1_dropShadow_1_2"/>
<feBlend mode="normal" in="SourceGraphic" in2="effect1_dropShadow_1_2" result="shape"/>
</filter>
<filter id="filter6_d_1_2" x="168" y="107" width="55.8527" height="45.7255" filterUnits="userSpaceOnUse" color-interpolation-filters="sRGB">
<feFlood flood-opacity="0" result="BackgroundImageFix"/>
<feColorMatrix in="SourceAlpha" type="matrix" values="0 0 0 0 0 0 0 0 0 0 0 0 0 0 0 0 0 0 127 0" result="hardAlpha"/>
<feOffset dy="4"/>
<feGaussianBlur stdDeviation="2"/>
<feComposite in2="hardAlpha" operator="out"/>
<feColorMatrix type="matrix" values="0 0 0 0 0 0 0 0 0 0 0 0 0 0 0 0 0 0 0.25 0"/>
<feBlend mode="normal" in2="BackgroundImageFix" result="effect1_dropShadow_1_2"/>
<feBlend mode="normal" in="SourceGraphic" in2="effect1_dropShadow_1_2" result="shape"/>
</filter>
<filter id="filter7_d_1_2" x="249" y="90" width="19" height="62" filterUnits="userSpaceOnUse" color-interpolation-filters="sRGB">
<feFlood flood-opacity="0" result="BackgroundImageFix"/>
<feColorMatrix in="SourceAlpha" type="matrix" values="0 0 0 0 0 0 0 0 0 0 0 0 0 0 0 0 0 0 127 0" result="hardAlpha"/>
<feOffset dy="4"/>
<feGaussianBlur stdDeviation="2"/>
<feComposite in2="hardAlpha" operator="out"/>
<feColorMatrix type="matrix" values="0 0 0 0 0 0 0 0 0 0 0 0 0 0 0 0 0 0 0.25 0"/>
<feBlend mode="normal" in2="BackgroundImageFix" result="effect1_dropShadow_1_2"/>
<feBlend mode="normal" in="SourceGraphic" in2="effect1_dropShadow_1_2" result="shape"/>
</filter>
<filter id="filter8_d_1_2" x="237.581" y="92.2898" width="62.6898" height="22.9748" filterUnits="userSpaceOnUse" color-interpolation-filters="sRGB">
<feFlood flood-opacity="0" result="BackgroundImageFix"/>
<feColorMatrix in="SourceAlpha" type="matrix" values="0 0 0 0 0 0 0 0 0 0 0 0 0 0 0 0 0 0 127 0" result="hardAlpha"/>
<feOffset dy="4"/>
<feGaussianBlur stdDeviation="2"/>
<feComposite in2="hardAlpha" operator="out"/>
<feColorMatrix type="matrix" values="0 0 0 0 0 0 0 0 0 0 0 0 0 0 0 0 0 0 0.25 0"/>
<feBlend mode="normal" in2="BackgroundImageFix" result="effect1_dropShadow_1_2"/>
<feBlend mode="normal" in="SourceGraphic" in2="effect1_dropShadow_1_2" result="shape"/>
</filter>
<filter id="filter9_d_1_2" x="237.617" y="129.26" width="62.5291" height="21.1298" filterUnits="userSpaceOnUse" color-interpolation-filters="sRGB">
<feFlood flood-opacity="0" result="BackgroundImageFix"/>
<feColorMatrix in="SourceAlpha" type="matrix" values="0 0 0 0 0 0 0 0 0 0 0 0 0 0 0 0 0 0 127 0" result="hardAlpha"/>
<feOffset dy="4"/>
<feGaussianBlur stdDeviation="2"/>
<feComposite in2="hardAlpha" operator="out"/>
<feColorMatrix type="matrix" values="0 0 0 0 0 0 0 0 0 0 0 0 0 0 0 0 0 0 0.25 0"/>
<feBlend mode="normal" in2="BackgroundImageFix" result="effect1_dropShadow_1_2"/>
<feBlend mode="normal" in="SourceGraphic" in2="effect1_dropShadow_1_2" result="shape"/>
</filter>
<filter id="filter10_d_1_2" x="321" y="75" width="40.2805" height="78.2979" filterUnits="userSpaceOnUse" color-interpolation-filters="sRGB">
<feFlood flood-opacity="0" result="BackgroundImageFix"/>
<feColorMatrix in="SourceAlpha" type="matrix" values="0 0 0 0 0 0 0 0 0 0 0 0 0 0 0 0 0 0 127 0" result="hardAlpha"/>
<feOffset dy="4"/>
<feGaussianBlur stdDeviation="2"/>
<feComposite in2="hardAlpha" operator="out"/>
<feColorMatrix type="matrix" values="0 0 0 0 0 0 0 0 0 0 0 0 0 0 0 0 0 0 0.25 0"/>
<feBlend mode="normal" in2="BackgroundImageFix" result="effect1_dropShadow_1_2"/>
<feBlend mode="normal" in="SourceGraphic" in2="effect1_dropShadow_1_2" result="shape"/>
</filter>
<filter id="filter11_d_1_2" x="335" y="80.9932" width="49.4509" height="75.7922" filterUnits="userSpaceOnUse" color-interpolation-filters="sRGB">
<feFlood flood-opacity="0" result="BackgroundImageFix"/>
<feColorMatrix in="SourceAlpha" type="matrix" values="0 0 0 0 0 0 0 0 0 0 0 0 0 0 0 0 0 0 127 0" result="hardAlpha"/>
<feOffset dy="4"/>
<feGaussianBlur stdDeviation="2"/>
<feComposite in2="hardAlpha" operator="out"/>
<feColorMatrix type="matrix" values="0 0 0 0 0 0 0 0 0 0 0 0 0 0 0 0 0 0 0.25 0"/>
<feBlend mode="normal" in2="BackgroundImageFix" result="effect1_dropShadow_1_2"/>
<feBlend mode="normal" in="SourceGraphic" in2="effect1_dropShadow_1_2" result="shape"/>
</filter>
<filter id="filter12_d_1_2" x="312" y="103.993" width="79.0275" height="34.5425" filterUnits="userSpaceOnUse" color-interpolation-filters="sRGB">
<feFlood flood-opacity="0" result="BackgroundImageFix"/>
<feColorMatrix in="SourceAlpha" type="matrix" values="0 0 0 0 0 0 0 0 0 0 0 0 0 0 0 0 0 0 127 0" result="hardAlpha"/>
<feOffset dy="4"/>
<feGaussianBlur stdDeviation="2"/>
<feComposite in2="hardAlpha" operator="out"/>
<feColorMatrix type="matrix" values="0 0 0 0 0 0 0 0 0 0 0 0 0 0 0 0 0 0 0.25 0"/>
<feBlend mode="normal" in2="BackgroundImageFix" result="effect1_dropShadow_1_2"/>
<feBlend mode="normal" in="SourceGraphic" in2="effect1_dropShadow_1_2" result="shape"/>
</filter>
<clipPath id="clip0_1_2">
<rect width="387" height="149" fill="white"/>
</clipPath>
</defs>
</svg>
