<svg width="102" height="144" viewBox="0 0 102 144" fill="none" xmlns="http://www.w3.org/2000/svg">
<g id="Frame 1" clip-path="url(#clip0_0_1)">
<path id="CordaForca" d="M79.113 60.961C80.1571 60.0732 83.9417 55 85.6382 55C87.3348 55 88.9789 58.6331 91.1194 60.961C98.8439 72.8576 97.6741 77.2624 85.6382 81C67.2371 78.9707 78.069 61.8488 79.113 60.961Z" stroke="black" stroke-width="3"/>
<rect id="Corda" x="84.5" y="11.5" width="2" height="38" fill="#020000" stroke="black"/>
<g id="NosForca">
<path id="Line 1" d="M81 58L89 55" stroke="black" stroke-width="4" stroke-linecap="round"/>
<path id="Line 3" d="M81 52L89 49" stroke="black" stroke-width="4" stroke-linecap="round"/>
<path id="Line 2" d="M81 55L89 52" stroke="black" stroke-width="4" stroke-linecap="round"/>
</g>
<rect id="MadeirinhaLateral" x="21.6996" y="44.4505" width="44.8272" height="6.22135" transform="rotate(-36.638 21.6996 44.4505)" fill="#996B43" stroke="black"/>
<g id="MadeiraHorizontal" filter="url(#filter0_d_0_1)">
<rect y="9" width="102" height="16" fill="#BA8C63"/>
<rect x="1" y="10" width="100" height="14" stroke="black" stroke-width="2"/>
</g>
<g id="MadeiraVertical" filter="url(#filter1_d_0_1)">
<rect x="11" width="19" height="144" fill="#BA8C63"/>
<rect x="12" y="1" width="17" height="142" stroke="black" stroke-width="2"/>
</g>
<g id="PlacaFrontal" filter="url(#filter2_d_0_1)">
<rect x="15" y="77" width="43" height="15" fill="#7E6044"/>
<rect x="15.5" y="77.5" width="42" height="14" stroke="black"/>
</g>
<circle id="Ellipse 1" cx="18" cy="89" r="1" fill="black"/>
<circle id="Ellipse 2" cx="18" cy="80" r="1" fill="black"/>
<path id="Made by Rafael Peres" d="M30.0847 83.628L28.9507 81.636V82.554C28.9507 82.802 28.9587 83.01 28.9747 83.178C28.9907 83.346 29.0167 83.492 29.0527 83.616C29.0887 83.74 29.1347 83.85 29.1907 83.946C29.2467 84.038 29.3147 84.132 29.3947 84.228C29.3067 84.204 29.2287 84.18 29.1607 84.156C29.0967 84.132 29.0327 84.104 28.9687 84.072C28.9087 84.04 28.8447 84 28.7767 83.952C28.7127 83.904 28.6367 83.844 28.5487 83.772C28.4927 83.868 28.4307 83.956 28.3627 84.036C28.2987 84.12 28.2207 84.198 28.1287 84.27C28.0407 84.342 27.9387 84.408 27.8227 84.468C27.7067 84.528 27.5707 84.582 27.4147 84.63C27.5347 84.514 27.6467 84.382 27.7507 84.234C27.8547 84.09 27.9447 83.936 28.0207 83.772C28.1007 83.604 28.1627 83.432 28.2067 83.256C28.2547 83.08 28.2787 82.902 28.2787 82.722C28.2787 82.554 28.2567 82.392 28.2127 82.236C28.1727 82.08 28.1047 81.93 28.0087 81.786C28.2047 81.41 28.3027 81.074 28.3027 80.778C28.3027 80.526 28.2367 80.3 28.1047 80.1C27.9767 79.896 27.7927 79.708 27.5527 79.536C27.5927 79.524 27.6387 79.518 27.6907 79.518C27.7707 79.518 27.8587 79.528 27.9547 79.548C28.0547 79.564 28.1627 79.582 28.2787 79.602C28.3987 79.622 28.5287 79.642 28.6687 79.662C28.8087 79.678 28.9627 79.686 29.1307 79.686C29.1707 79.686 29.2087 79.686 29.2447 79.686C29.2847 79.686 29.3247 79.684 29.3647 79.68C29.3287 79.708 29.2947 79.744 29.2627 79.788C29.2347 79.832 29.2087 79.88 29.1847 79.932C29.1607 79.984 29.1407 80.038 29.1247 80.094C29.1127 80.15 29.1067 80.202 29.1067 80.25L30.3007 82.308L31.2967 80.286C31.2487 80.146 31.1927 80.028 31.1287 79.932C31.0687 79.836 30.9887 79.746 30.8887 79.662C30.9167 79.67 30.9427 79.674 30.9667 79.674C30.9907 79.674 31.0167 79.674 31.0447 79.674C31.1807 79.674 31.3227 79.67 31.4707 79.662C31.6187 79.65 31.7667 79.636 31.9147 79.62C32.0627 79.6 32.2067 79.58 32.3467 79.56C32.4867 79.536 32.6207 79.514 32.7487 79.494C32.6287 79.578 32.5307 79.67 32.4547 79.77C32.3827 79.866 32.3267 79.968 32.2867 80.076C32.2507 80.184 32.2247 80.298 32.2087 80.418C32.1967 80.534 32.1907 80.654 32.1907 80.778C32.1907 80.93 32.2167 81.088 32.2687 81.252C32.3207 81.416 32.3967 81.594 32.4967 81.786C32.4247 81.914 32.3587 82.074 32.2987 82.266C32.2427 82.458 32.2147 82.65 32.2147 82.842C32.2147 83.05 32.2507 83.244 32.3227 83.424C32.3987 83.604 32.5067 83.738 32.6467 83.826C32.5627 83.87 32.4787 83.922 32.3947 83.982C32.3107 84.038 32.2327 84.098 32.1607 84.162C32.0887 84.23 32.0247 84.298 31.9687 84.366C31.9127 84.434 31.8707 84.498 31.8427 84.558C31.8227 84.498 31.7867 84.432 31.7347 84.36C31.6867 84.288 31.6267 84.218 31.5547 84.15C31.4827 84.082 31.4047 84.02 31.3207 83.964C31.2367 83.904 31.1527 83.858 31.0687 83.826C31.1327 83.77 31.1827 83.696 31.2187 83.604C31.2587 83.512 31.2867 83.41 31.3027 83.298C31.3227 83.186 31.3347 83.066 31.3387 82.938C31.3467 82.81 31.3507 82.682 31.3507 82.554V81.42L30.1867 83.646L30.0847 83.628ZM34.0048 83.436C34.0928 83.444 34.1828 83.45 34.2748 83.454C34.3708 83.458 34.4888 83.476 34.6288 83.508V82.662C34.5128 82.706 34.4008 82.744 34.2928 82.776C34.1848 82.804 34.0928 82.822 34.0168 82.83L34.0048 83.436ZM35.5528 81.522C35.4888 81.614 35.4468 81.736 35.4268 81.888C35.4108 82.04 35.4028 82.262 35.4028 82.554C35.4028 82.746 35.4068 82.9 35.4148 83.016C35.4268 83.128 35.4428 83.218 35.4628 83.286C35.4828 83.35 35.5108 83.396 35.5468 83.424C35.5828 83.448 35.6268 83.466 35.6788 83.478V83.544C35.6228 83.564 35.5628 83.6 35.4988 83.652C35.4388 83.7 35.3788 83.754 35.3188 83.814C35.2588 83.874 35.2048 83.936 35.1568 84C35.1088 84.064 35.0728 84.12 35.0488 84.168C34.9648 84.112 34.8888 84.038 34.8208 83.946C34.7528 83.854 34.6988 83.762 34.6588 83.67L34.2448 84.168C34.0928 84.076 33.9248 84.006 33.7408 83.958C33.5608 83.91 33.3548 83.884 33.1228 83.88C33.1628 83.776 33.1868 83.646 33.1948 83.49C33.2028 83.33 33.2068 83.17 33.2068 83.01C33.2068 82.914 33.2008 82.824 33.1888 82.74C33.1768 82.652 33.1568 82.574 33.1288 82.506C33.2168 82.518 33.3128 82.524 33.4168 82.524C33.5288 82.524 33.6428 82.52 33.7588 82.512C33.8788 82.5 33.9928 82.484 34.1008 82.464C34.2088 82.444 34.3068 82.422 34.3948 82.398C34.4868 82.37 34.5628 82.34 34.6228 82.308V81.714C34.4868 81.774 34.3448 81.824 34.1968 81.864C34.0488 81.904 33.9268 81.924 33.8308 81.924C33.7628 81.924 33.6988 81.918 33.6388 81.906C33.5828 81.89 33.5308 81.862 33.4828 81.822C33.4348 81.778 33.3908 81.718 33.3508 81.642C33.3148 81.566 33.2828 81.468 33.2548 81.348C33.2788 81.348 33.2948 81.35 33.3028 81.354C33.3148 81.354 33.3448 81.354 33.3928 81.354C33.6808 81.354 33.9288 81.328 34.1368 81.276C34.3448 81.224 34.5068 81.164 34.6228 81.096C34.7548 81.24 34.8908 81.348 35.0308 81.42C35.1748 81.488 35.3488 81.522 35.5528 81.522ZM38.592 82.41C38.592 82.634 38.596 82.812 38.604 82.944C38.612 83.076 38.626 83.18 38.646 83.256C38.67 83.328 38.698 83.38 38.73 83.412C38.766 83.44 38.81 83.462 38.862 83.478V83.544C38.806 83.564 38.746 83.6 38.682 83.652C38.622 83.7 38.562 83.754 38.502 83.814C38.442 83.874 38.388 83.936 38.34 84C38.292 84.064 38.256 84.12 38.232 84.168C38.148 84.112 38.072 84.038 38.004 83.946C37.936 83.854 37.882 83.762 37.842 83.67C37.77 83.718 37.688 83.766 37.596 83.814C37.504 83.862 37.406 83.908 37.302 83.952C37.202 83.992 37.098 84.028 36.99 84.06C36.882 84.096 36.778 84.126 36.678 84.15C36.582 84.046 36.478 83.96 36.366 83.892C36.254 83.824 36.14 83.774 36.024 83.742C36.068 83.574 36.094 83.416 36.102 83.268C36.11 83.116 36.114 82.964 36.114 82.812C36.114 82.62 36.112 82.456 36.108 82.32C36.104 82.18 36.096 82.062 36.084 81.966C36.076 81.866 36.066 81.786 36.054 81.726C36.042 81.662 36.028 81.61 36.012 81.57C36.192 81.538 36.374 81.478 36.558 81.39C36.746 81.298 36.932 81.188 37.116 81.06C37.24 81.112 37.356 81.152 37.464 81.18C37.572 81.208 37.688 81.228 37.812 81.24V80.37C37.812 80.27 37.81 80.18 37.806 80.1C37.802 80.02 37.792 79.946 37.776 79.878C37.764 79.81 37.746 79.744 37.722 79.68C37.698 79.616 37.668 79.55 37.632 79.482C37.712 79.51 37.806 79.524 37.914 79.524C38.046 79.524 38.184 79.502 38.328 79.458C38.476 79.414 38.634 79.352 38.802 79.272C38.722 79.368 38.666 79.496 38.634 79.656C38.606 79.816 38.592 80 38.592 80.208V82.41ZM37.314 81.654C37.266 81.698 37.2 81.748 37.116 81.804C37.036 81.856 36.964 81.896 36.9 81.924C36.908 82.012 36.912 82.132 36.912 82.284C36.916 82.432 36.918 82.574 36.918 82.71C36.918 82.838 36.914 82.966 36.906 83.094C36.902 83.222 36.896 83.34 36.888 83.448C36.968 83.444 37.052 83.434 37.14 83.418C37.232 83.398 37.32 83.376 37.404 83.352C37.488 83.328 37.566 83.302 37.638 83.274C37.71 83.242 37.768 83.212 37.812 83.184V81.774C37.748 81.77 37.668 81.756 37.572 81.732C37.476 81.708 37.39 81.682 37.314 81.654ZM40.4111 84.192C40.3351 84.136 40.2411 84.084 40.1291 84.036C40.0171 83.988 39.9011 83.948 39.7811 83.916C39.6651 83.88 39.5511 83.852 39.4391 83.832C39.3311 83.812 39.2411 83.802 39.1691 83.802C39.2011 83.75 39.2291 83.678 39.2531 83.586C39.2771 83.49 39.2951 83.388 39.3071 83.28C39.3231 83.168 39.3331 83.054 39.3371 82.938C39.3451 82.822 39.3491 82.716 39.3491 82.62C39.3491 82.376 39.3331 82.174 39.3011 82.014C39.2731 81.85 39.2451 81.722 39.2171 81.63C39.3891 81.598 39.5451 81.536 39.6851 81.444C39.8291 81.352 39.9711 81.236 40.1111 81.096C40.2751 81.128 40.4771 81.156 40.7171 81.18C40.9571 81.2 41.1951 81.214 41.4311 81.222C41.4191 81.294 41.4131 81.384 41.4131 81.492C41.4131 81.576 41.4171 81.668 41.4251 81.768C41.4331 81.864 41.4431 81.96 41.4551 82.056C41.4671 82.152 41.4831 82.244 41.5031 82.332C41.5231 82.42 41.5451 82.496 41.5691 82.56C41.3251 82.58 41.0771 82.608 40.8251 82.644C40.5731 82.676 40.3271 82.712 40.0871 82.752C40.0831 82.868 40.0751 82.982 40.0631 83.094C40.0511 83.206 40.0411 83.304 40.0331 83.388C40.0811 83.408 40.1411 83.426 40.2131 83.442C40.2891 83.458 40.3691 83.474 40.4531 83.49C40.5371 83.502 40.6191 83.514 40.6991 83.526C40.7791 83.534 40.8471 83.54 40.9031 83.544C40.9231 83.42 40.9711 83.314 41.0471 83.226C41.1271 83.138 41.2611 83.066 41.4491 83.01C41.4451 83.058 41.4431 83.106 41.4431 83.154C41.4431 83.198 41.4431 83.242 41.4431 83.286C41.4431 83.422 41.4471 83.53 41.4551 83.61C41.4671 83.686 41.4871 83.762 41.5151 83.838C41.4391 83.846 41.3491 83.862 41.2451 83.886C41.1411 83.906 41.0371 83.934 40.9331 83.97C40.8291 84.002 40.7291 84.036 40.6331 84.072C40.5411 84.112 40.4671 84.152 40.4111 84.192ZM40.0271 81.636C40.0471 81.804 40.0611 81.952 40.0691 82.08C40.0811 82.208 40.0891 82.326 40.0931 82.434L40.7951 82.26C40.7751 82.18 40.7571 82.096 40.7411 82.008C40.7291 81.92 40.7231 81.83 40.7231 81.738C40.6311 81.738 40.5191 81.73 40.3871 81.714C40.2591 81.694 40.1391 81.668 40.0271 81.636ZM44.8364 83.586C44.8804 83.542 44.9364 83.494 45.0044 83.442C45.0724 83.386 45.1344 83.344 45.1904 83.316C45.1824 83.228 45.1764 83.11 45.1724 82.962C45.1724 82.81 45.1724 82.666 45.1724 82.53C45.1724 82.402 45.1744 82.274 45.1784 82.146C45.1864 82.018 45.1944 81.9 45.2024 81.792C45.1184 81.796 45.0304 81.808 44.9384 81.828C44.8504 81.844 44.7644 81.864 44.6804 81.888C44.5964 81.912 44.5184 81.94 44.4464 81.972C44.3744 82 44.3164 82.028 44.2724 82.056V82.416C44.2724 82.636 44.2684 82.838 44.2604 83.022C44.2564 83.206 44.2424 83.354 44.2184 83.466C44.2944 83.47 44.3944 83.484 44.5184 83.508C44.6424 83.532 44.7484 83.558 44.8364 83.586ZM43.4924 80.37C43.4924 80.27 43.4904 80.18 43.4864 80.1C43.4824 80.02 43.4724 79.946 43.4564 79.878C43.4444 79.81 43.4264 79.744 43.4024 79.68C43.3784 79.616 43.3484 79.55 43.3124 79.482C43.3924 79.51 43.4864 79.524 43.5944 79.524C43.7264 79.524 43.8644 79.502 44.0084 79.458C44.1564 79.414 44.3144 79.352 44.4824 79.272C44.4024 79.368 44.3464 79.496 44.3144 79.656C44.2864 79.816 44.2724 80 44.2724 80.208V81.594C44.3444 81.546 44.4244 81.498 44.5124 81.45C44.6004 81.398 44.6944 81.35 44.7944 81.306C44.8944 81.258 44.9964 81.216 45.1004 81.18C45.2044 81.144 45.3084 81.114 45.4124 81.09C45.5084 81.194 45.6124 81.28 45.7244 81.348C45.8364 81.416 45.9504 81.466 46.0664 81.498C46.0224 81.666 45.9964 81.826 45.9884 81.978C45.9804 82.126 45.9764 82.276 45.9764 82.428C45.9764 82.616 45.9784 82.78 45.9824 82.92C45.9864 83.06 45.9924 83.18 46.0004 83.28C46.0084 83.38 46.0184 83.462 46.0304 83.526C46.0424 83.586 46.0584 83.634 46.0784 83.67C45.9904 83.686 45.8944 83.71 45.7904 83.742C45.6864 83.774 45.5804 83.812 45.4724 83.856C45.3644 83.9 45.2564 83.948 45.1484 84C45.0444 84.056 44.9464 84.116 44.8544 84.18C44.6744 84.124 44.5024 84.076 44.3384 84.036C44.1744 84 44.0284 83.982 43.9004 83.982C43.8124 83.982 43.7124 83.99 43.6004 84.006C43.4924 84.022 43.3964 84.046 43.3124 84.078C43.3844 83.946 43.4324 83.752 43.4564 83.496C43.4804 83.24 43.4924 82.89 43.4924 82.446V80.37ZM46.4219 81.342C46.5059 81.334 46.5999 81.322 46.7039 81.306C46.8079 81.286 46.9119 81.264 47.0159 81.24C47.1199 81.216 47.2159 81.192 47.3039 81.168C47.3919 81.14 47.4619 81.114 47.5139 81.09C47.5059 81.158 47.4979 81.22 47.4899 81.276C47.4859 81.332 47.4819 81.392 47.4779 81.456C47.4779 81.52 47.4759 81.59 47.4719 81.666C47.4719 81.742 47.4719 81.832 47.4719 81.936V83.028L47.7239 83.22L48.2999 82.968V82.152C48.2999 82.016 48.2959 81.904 48.2879 81.816C48.2839 81.728 48.2719 81.658 48.2519 81.606C48.2319 81.554 48.2039 81.516 48.1679 81.492C48.1359 81.464 48.0899 81.442 48.0299 81.426V81.348C48.2219 81.336 48.4099 81.308 48.5939 81.264C48.7819 81.22 48.9439 81.164 49.0799 81.096V83.856C49.0799 84.108 49.0819 84.318 49.0859 84.486C49.0939 84.658 49.1079 84.786 49.1279 84.87C49.0159 84.87 48.8939 84.886 48.7619 84.918C48.6299 84.954 48.4959 85.002 48.3599 85.062C48.2279 85.122 48.0979 85.192 47.9699 85.272C47.8419 85.356 47.7279 85.446 47.6279 85.542C47.3999 85.374 47.1879 85.252 46.9919 85.176C46.7959 85.1 46.5899 85.062 46.3739 85.062C46.4059 84.894 46.4559 84.74 46.5239 84.6C46.5959 84.464 46.6779 84.352 46.7699 84.264C46.8139 84.268 46.8819 84.288 46.9739 84.324C47.0699 84.364 47.1739 84.414 47.2859 84.474C47.3979 84.534 47.5079 84.598 47.6159 84.666C47.7279 84.734 47.8239 84.8 47.9039 84.864L48.3539 84.72C48.3459 84.668 48.3379 84.61 48.3299 84.546C48.3259 84.486 48.3199 84.406 48.3119 84.306C48.3079 84.21 48.3039 84.09 48.2999 83.946C48.2999 83.798 48.2999 83.612 48.2999 83.388C48.1839 83.448 48.0819 83.504 47.9939 83.556C47.9059 83.608 47.8259 83.66 47.7539 83.712C47.6819 83.764 47.6139 83.818 47.5499 83.874C47.4899 83.926 47.4279 83.984 47.3639 84.048C47.2839 83.976 47.2119 83.916 47.1479 83.868C47.0879 83.816 47.0279 83.77 46.9679 83.73C46.9119 83.69 46.8539 83.654 46.7939 83.622C46.7379 83.586 46.6739 83.548 46.6019 83.508C46.6179 83.488 46.6319 83.438 46.6439 83.358C46.6599 83.274 46.6739 83.176 46.6859 83.064C46.6979 82.948 46.7059 82.824 46.7099 82.692C46.7179 82.56 46.7219 82.434 46.7219 82.314C46.7219 82.178 46.7159 82.06 46.7039 81.96C46.6959 81.86 46.6799 81.776 46.6559 81.708C46.6319 81.636 46.5999 81.578 46.5599 81.534C46.5239 81.486 46.4759 81.444 46.4159 81.408L46.4219 81.342ZM26.0528 89.766C25.8848 89.886 25.7528 90.03 25.6568 90.198C25.5648 90.37 25.4908 90.54 25.4348 90.708C25.4148 90.628 25.3848 90.542 25.3448 90.45C25.3088 90.358 25.2628 90.268 25.2068 90.18C25.1508 90.096 25.0848 90.018 25.0088 89.946C24.9368 89.87 24.8568 89.81 24.7688 89.766C24.8048 89.73 24.8308 89.684 24.8468 89.628C24.8668 89.568 24.8808 89.486 24.8888 89.382C24.9008 89.274 24.9088 89.138 24.9128 88.974C24.9168 88.81 24.9228 88.604 24.9308 88.356C24.9148 88.348 24.8608 88.31 24.7688 88.242C24.6808 88.174 24.5848 88.098 24.4808 88.014C24.3408 88.098 24.2028 88.18 24.0668 88.26C23.9348 88.34 23.8128 88.414 23.7008 88.482C23.7168 88.782 23.7388 89.066 23.7668 89.334C23.7988 89.598 23.8408 89.84 23.8928 90.06C23.7888 90.008 23.6948 89.972 23.6108 89.952C23.5308 89.932 23.4528 89.922 23.3768 89.922C23.3088 89.922 23.2408 89.928 23.1728 89.94C23.1088 89.952 23.0408 89.966 22.9688 89.982C22.9008 89.994 22.8288 90.006 22.7528 90.018C22.6768 90.03 22.5928 90.036 22.5008 90.036C22.4808 90.036 22.4588 90.036 22.4348 90.036C22.4108 90.036 22.3888 90.034 22.3688 90.03C22.4528 89.978 22.5308 89.91 22.6028 89.826C22.6748 89.738 22.7368 89.642 22.7888 89.538C22.8408 89.434 22.8808 89.324 22.9088 89.208C22.9408 89.092 22.9568 88.978 22.9568 88.866C22.9568 88.662 22.9328 88.464 22.8848 88.272C22.8368 88.076 22.7608 87.914 22.6568 87.786C22.7688 87.578 22.8448 87.382 22.8848 87.198C22.9248 87.01 22.9448 86.824 22.9448 86.64C22.9448 86.532 22.9388 86.414 22.9268 86.286C22.7588 86.262 22.6288 86.2 22.5368 86.1C22.4488 85.996 22.4048 85.836 22.4048 85.62C22.5728 85.656 22.7108 85.682 22.8188 85.698C22.9268 85.71 23.0368 85.716 23.1488 85.716C23.2128 85.716 23.2828 85.714 23.3588 85.71C23.4348 85.702 23.5148 85.686 23.5988 85.662C23.6868 85.638 23.7808 85.602 23.8808 85.554C23.9808 85.502 24.0868 85.432 24.1988 85.344C24.2428 85.38 24.3308 85.426 24.4628 85.482C24.5948 85.538 24.7488 85.592 24.9248 85.644C25.1008 85.696 25.2868 85.74 25.4828 85.776C25.6828 85.812 25.8708 85.83 26.0468 85.83C26.1028 85.83 26.1568 85.828 26.2088 85.824C26.2608 85.82 26.3148 85.814 26.3708 85.806C26.3268 85.898 26.2408 85.994 26.1128 86.094C25.9848 86.19 25.8428 86.268 25.6868 86.328C25.6748 86.384 25.6688 86.444 25.6688 86.508C25.6688 86.572 25.6708 86.64 25.6748 86.712C25.6828 86.784 25.6908 86.856 25.6988 86.928C25.7108 87 25.7248 87.068 25.7408 87.132C25.7568 87.196 25.7748 87.25 25.7948 87.294C25.7548 87.306 25.6848 87.338 25.5848 87.39C25.4888 87.438 25.3728 87.502 25.2368 87.582C25.3288 87.666 25.4288 87.754 25.5368 87.846C25.6448 87.938 25.7548 88.018 25.8668 88.086C25.8468 88.13 25.8308 88.206 25.8188 88.314C25.8108 88.422 25.8068 88.546 25.8068 88.686C25.8068 88.79 25.8108 88.896 25.8188 89.004C25.8268 89.108 25.8408 89.21 25.8608 89.31C25.8808 89.406 25.9048 89.494 25.9328 89.574C25.9648 89.654 26.0048 89.718 26.0528 89.766ZM24.8288 86.286C24.6128 86.254 24.4128 86.226 24.2288 86.202C24.0448 86.178 23.8628 86.144 23.6828 86.1C23.6748 86.2 23.6708 86.308 23.6708 86.424C23.6708 86.54 23.6708 86.658 23.6708 86.778V87.246V87.72C23.7988 87.644 23.9308 87.568 24.0668 87.492C24.2028 87.412 24.3288 87.34 24.4448 87.276C24.5608 87.208 24.6568 87.152 24.7328 87.108C24.8088 87.06 24.8508 87.032 24.8588 87.024L24.8288 86.286ZM27.4394 89.436C27.5274 89.444 27.6174 89.45 27.7094 89.454C27.8054 89.458 27.9234 89.476 28.0634 89.508V88.662C27.9474 88.706 27.8354 88.744 27.7274 88.776C27.6194 88.804 27.5274 88.822 27.4514 88.83L27.4394 89.436ZM28.9874 87.522C28.9234 87.614 28.8814 87.736 28.8614 87.888C28.8454 88.04 28.8374 88.262 28.8374 88.554C28.8374 88.746 28.8414 88.9 28.8494 89.016C28.8614 89.128 28.8774 89.218 28.8974 89.286C28.9174 89.35 28.9454 89.396 28.9814 89.424C29.0174 89.448 29.0614 89.466 29.1134 89.478V89.544C29.0574 89.564 28.9974 89.6 28.9334 89.652C28.8734 89.7 28.8134 89.754 28.7534 89.814C28.6934 89.874 28.6394 89.936 28.5914 90C28.5434 90.064 28.5074 90.12 28.4834 90.168C28.3994 90.112 28.3234 90.038 28.2554 89.946C28.1874 89.854 28.1334 89.762 28.0934 89.67L27.6794 90.168C27.5274 90.076 27.3594 90.006 27.1754 89.958C26.9954 89.91 26.7894 89.884 26.5574 89.88C26.5974 89.776 26.6214 89.646 26.6294 89.49C26.6374 89.33 26.6414 89.17 26.6414 89.01C26.6414 88.914 26.6354 88.824 26.6234 88.74C26.6114 88.652 26.5914 88.574 26.5634 88.506C26.6514 88.518 26.7474 88.524 26.8514 88.524C26.9634 88.524 27.0774 88.52 27.1934 88.512C27.3134 88.5 27.4274 88.484 27.5354 88.464C27.6434 88.444 27.7414 88.422 27.8294 88.398C27.9214 88.37 27.9974 88.34 28.0574 88.308V87.714C27.9214 87.774 27.7794 87.824 27.6314 87.864C27.4834 87.904 27.3614 87.924 27.2654 87.924C27.1974 87.924 27.1334 87.918 27.0734 87.906C27.0174 87.89 26.9654 87.862 26.9174 87.822C26.8694 87.778 26.8254 87.718 26.7854 87.642C26.7494 87.566 26.7174 87.468 26.6894 87.348C26.7134 87.348 26.7294 87.35 26.7374 87.354C26.7494 87.354 26.7794 87.354 26.8274 87.354C27.1154 87.354 27.3634 87.328 27.5714 87.276C27.7794 87.224 27.9414 87.164 28.0574 87.096C28.1894 87.24 28.3254 87.348 28.4654 87.42C28.6094 87.488 28.7834 87.522 28.9874 87.522ZM29.4706 89.928C29.5266 89.916 29.5746 89.896 29.6146 89.868C29.6586 89.84 29.6946 89.796 29.7226 89.736C29.7546 89.676 29.7766 89.596 29.7886 89.496C29.8046 89.396 29.8126 89.266 29.8126 89.106V87.648H29.3146V87.582C29.4906 87.514 29.6566 87.41 29.8126 87.27V87.018C29.8126 86.838 29.8106 86.69 29.8066 86.574C29.8066 86.458 29.8026 86.362 29.7946 86.286C29.7866 86.206 29.7746 86.138 29.7586 86.082C29.7426 86.026 29.7206 85.968 29.6926 85.908C29.7806 85.884 29.8766 85.854 29.9806 85.818C30.0886 85.778 30.1946 85.734 30.2986 85.686C30.4066 85.638 30.5086 85.586 30.6046 85.53C30.7046 85.47 30.7906 85.41 30.8626 85.35C31.0026 85.426 31.1646 85.494 31.3486 85.554C31.5326 85.61 31.7446 85.664 31.9846 85.716C31.9166 85.908 31.8386 86.046 31.7506 86.13C31.6666 86.21 31.5686 86.25 31.4566 86.25C31.3486 86.25 31.2266 86.218 31.0906 86.154C30.9546 86.09 30.8026 86.004 30.6346 85.896L30.5146 85.974C30.5306 86.03 30.5426 86.088 30.5506 86.148C30.5626 86.204 30.5706 86.276 30.5746 86.364C30.5826 86.452 30.5866 86.558 30.5866 86.682C30.5906 86.806 30.5926 86.958 30.5926 87.138V87.27H31.4386V87.294C31.3826 87.354 31.3286 87.428 31.2766 87.516C31.2286 87.6 31.1906 87.684 31.1626 87.768L30.5926 87.69V89.202C30.5926 89.33 30.5986 89.438 30.6106 89.526C30.6226 89.61 30.6426 89.68 30.6706 89.736C30.7026 89.788 30.7426 89.83 30.7906 89.862C30.8386 89.89 30.8966 89.912 30.9646 89.928V90C30.8286 90.004 30.7026 90.018 30.5866 90.042C30.4746 90.066 30.3526 90.108 30.2206 90.168C30.1286 90.116 30.0126 90.076 29.8726 90.048C29.7326 90.02 29.5986 90.004 29.4706 90V89.928ZM32.5136 89.436C32.6016 89.444 32.6916 89.45 32.7836 89.454C32.8796 89.458 32.9976 89.476 33.1376 89.508V88.662C33.0216 88.706 32.9096 88.744 32.8016 88.776C32.6936 88.804 32.6016 88.822 32.5256 88.83L32.5136 89.436ZM34.0616 87.522C33.9976 87.614 33.9556 87.736 33.9356 87.888C33.9196 88.04 33.9116 88.262 33.9116 88.554C33.9116 88.746 33.9156 88.9 33.9236 89.016C33.9356 89.128 33.9516 89.218 33.9716 89.286C33.9916 89.35 34.0196 89.396 34.0556 89.424C34.0916 89.448 34.1356 89.466 34.1876 89.478V89.544C34.1316 89.564 34.0716 89.6 34.0076 89.652C33.9476 89.7 33.8876 89.754 33.8276 89.814C33.7676 89.874 33.7136 89.936 33.6656 90C33.6176 90.064 33.5816 90.12 33.5576 90.168C33.4736 90.112 33.3976 90.038 33.3296 89.946C33.2616 89.854 33.2076 89.762 33.1676 89.67L32.7536 90.168C32.6016 90.076 32.4336 90.006 32.2496 89.958C32.0696 89.91 31.8636 89.884 31.6316 89.88C31.6716 89.776 31.6956 89.646 31.7036 89.49C31.7116 89.33 31.7156 89.17 31.7156 89.01C31.7156 88.914 31.7096 88.824 31.6976 88.74C31.6856 88.652 31.6656 88.574 31.6376 88.506C31.7256 88.518 31.8216 88.524 31.9256 88.524C32.0376 88.524 32.1516 88.52 32.2676 88.512C32.3876 88.5 32.5016 88.484 32.6096 88.464C32.7176 88.444 32.8156 88.422 32.9036 88.398C32.9956 88.37 33.0716 88.34 33.1316 88.308V87.714C32.9956 87.774 32.8536 87.824 32.7056 87.864C32.5576 87.904 32.4356 87.924 32.3396 87.924C32.2716 87.924 32.2076 87.918 32.1476 87.906C32.0916 87.89 32.0396 87.862 31.9916 87.822C31.9436 87.778 31.8996 87.718 31.8596 87.642C31.8236 87.566 31.7916 87.468 31.7636 87.348C31.7876 87.348 31.8036 87.35 31.8116 87.354C31.8236 87.354 31.8536 87.354 31.9016 87.354C32.1896 87.354 32.4376 87.328 32.6456 87.276C32.8536 87.224 33.0156 87.164 33.1316 87.096C33.2636 87.24 33.3996 87.348 33.5396 87.42C33.6836 87.488 33.8576 87.522 34.0616 87.522ZM35.7148 90.192C35.6388 90.136 35.5448 90.084 35.4328 90.036C35.3208 89.988 35.2048 89.948 35.0848 89.916C34.9688 89.88 34.8548 89.852 34.7428 89.832C34.6348 89.812 34.5448 89.802 34.4728 89.802C34.5048 89.75 34.5328 89.678 34.5568 89.586C34.5808 89.49 34.5988 89.388 34.6108 89.28C34.6268 89.168 34.6368 89.054 34.6408 88.938C34.6488 88.822 34.6528 88.716 34.6528 88.62C34.6528 88.376 34.6368 88.174 34.6048 88.014C34.5768 87.85 34.5488 87.722 34.5208 87.63C34.6928 87.598 34.8488 87.536 34.9888 87.444C35.1328 87.352 35.2748 87.236 35.4148 87.096C35.5788 87.128 35.7808 87.156 36.0208 87.18C36.2608 87.2 36.4988 87.214 36.7348 87.222C36.7228 87.294 36.7168 87.384 36.7168 87.492C36.7168 87.576 36.7208 87.668 36.7288 87.768C36.7368 87.864 36.7468 87.96 36.7588 88.056C36.7708 88.152 36.7868 88.244 36.8068 88.332C36.8268 88.42 36.8488 88.496 36.8728 88.56C36.6288 88.58 36.3808 88.608 36.1288 88.644C35.8768 88.676 35.6308 88.712 35.3908 88.752C35.3868 88.868 35.3788 88.982 35.3668 89.094C35.3548 89.206 35.3448 89.304 35.3368 89.388C35.3848 89.408 35.4448 89.426 35.5168 89.442C35.5928 89.458 35.6728 89.474 35.7568 89.49C35.8408 89.502 35.9228 89.514 36.0028 89.526C36.0828 89.534 36.1508 89.54 36.2068 89.544C36.2268 89.42 36.2748 89.314 36.3508 89.226C36.4308 89.138 36.5648 89.066 36.7528 89.01C36.7488 89.058 36.7468 89.106 36.7468 89.154C36.7468 89.198 36.7468 89.242 36.7468 89.286C36.7468 89.422 36.7508 89.53 36.7588 89.61C36.7708 89.686 36.7908 89.762 36.8188 89.838C36.7428 89.846 36.6528 89.862 36.5488 89.886C36.4448 89.906 36.3408 89.934 36.2368 89.97C36.1328 90.002 36.0328 90.036 35.9368 90.072C35.8448 90.112 35.7708 90.152 35.7148 90.192ZM35.3308 87.636C35.3508 87.804 35.3648 87.952 35.3728 88.08C35.3848 88.208 35.3928 88.326 35.3968 88.434L36.0988 88.26C36.0788 88.18 36.0608 88.096 36.0448 88.008C36.0328 87.92 36.0268 87.83 36.0268 87.738C35.9348 87.738 35.8228 87.73 35.6908 87.714C35.5628 87.694 35.4428 87.668 35.3308 87.636ZM37.1725 90.126C37.2765 90.074 37.3545 89.988 37.4065 89.868C37.4585 89.748 37.4845 89.608 37.4845 89.448V86.37C37.4845 86.27 37.4825 86.18 37.4785 86.1C37.4745 86.02 37.4645 85.946 37.4485 85.878C37.4365 85.81 37.4185 85.744 37.3945 85.68C37.3705 85.616 37.3405 85.55 37.3045 85.482C37.3845 85.51 37.4785 85.524 37.5865 85.524C37.7185 85.524 37.8565 85.502 38.0005 85.458C38.1485 85.414 38.3065 85.352 38.4745 85.272C38.3945 85.368 38.3385 85.496 38.3065 85.656C38.2785 85.816 38.2645 86 38.2645 86.208V89.112C38.2645 89.276 38.2705 89.412 38.2825 89.52C38.2945 89.628 38.3145 89.724 38.3425 89.808C38.3745 89.892 38.4185 89.972 38.4745 90.048C38.5305 90.128 38.6005 90.222 38.6845 90.33L38.6485 90.384C38.5405 90.332 38.4505 90.29 38.3785 90.258C38.3065 90.23 38.2445 90.204 38.1925 90.18C38.1445 90.156 38.1005 90.13 38.0605 90.102C38.0245 90.078 37.9865 90.044 37.9465 90C37.8305 90.048 37.7045 90.088 37.5685 90.12C37.4365 90.152 37.3065 90.168 37.1785 90.168L37.1725 90.126ZM42.891 88.728C42.723 88.668 42.531 88.632 42.315 88.62C42.103 88.608 41.871 88.6 41.619 88.596V88.842C41.619 89.05 41.655 89.244 41.727 89.424C41.803 89.604 41.911 89.738 42.051 89.826C41.879 89.942 41.745 90.066 41.649 90.198C41.553 90.33 41.459 90.48 41.367 90.648C41.299 90.48 41.185 90.324 41.025 90.18C40.869 90.036 40.701 89.918 40.521 89.826C40.601 89.71 40.661 89.568 40.701 89.4C40.741 89.228 40.761 89.052 40.761 88.872C40.761 88.668 40.737 88.478 40.689 88.302C40.645 88.126 40.581 87.994 40.497 87.906C40.613 87.738 40.689 87.552 40.725 87.348C40.765 87.14 40.785 86.932 40.785 86.724C40.785 86.668 40.783 86.612 40.779 86.556C40.779 86.5 40.777 86.444 40.773 86.388C40.633 86.344 40.513 86.266 40.413 86.154C40.313 86.042 40.253 85.884 40.233 85.68C40.369 85.7 40.493 85.716 40.605 85.728C40.717 85.74 40.825 85.746 40.929 85.746C41.117 85.746 41.299 85.72 41.475 85.668C41.655 85.616 41.861 85.522 42.093 85.386C42.137 85.422 42.223 85.468 42.351 85.524C42.483 85.58 42.637 85.634 42.813 85.686C42.989 85.738 43.175 85.784 43.371 85.824C43.567 85.86 43.753 85.878 43.929 85.878C43.985 85.878 44.039 85.876 44.091 85.872C44.143 85.868 44.197 85.862 44.253 85.854C44.233 85.898 44.207 85.95 44.175 86.01C44.143 86.07 44.105 86.13 44.061 86.19C44.021 86.25 43.973 86.308 43.917 86.364C43.861 86.42 43.801 86.468 43.737 86.508C43.717 86.636 43.701 86.762 43.689 86.886C43.681 87.01 43.677 87.13 43.677 87.246C43.677 87.414 43.691 87.558 43.719 87.678C43.747 87.798 43.797 87.93 43.869 88.074C43.741 88.11 43.629 88.15 43.533 88.194C43.437 88.234 43.351 88.28 43.275 88.332C43.203 88.384 43.135 88.444 43.071 88.512C43.011 88.576 42.951 88.648 42.891 88.728ZM42.933 87.804C42.929 87.748 42.925 87.668 42.921 87.564C42.921 87.46 42.919 87.348 42.915 87.228C42.911 87.108 42.907 86.988 42.903 86.868C42.903 86.744 42.901 86.636 42.897 86.544C42.769 86.52 42.649 86.494 42.537 86.466C42.425 86.438 42.317 86.41 42.213 86.382C42.113 86.35 42.013 86.32 41.913 86.292C41.817 86.26 41.717 86.23 41.613 86.202C41.609 86.334 41.607 86.464 41.607 86.592C41.607 86.72 41.607 86.846 41.607 86.97C41.607 87.138 41.607 87.298 41.607 87.45C41.607 87.598 41.609 87.748 41.613 87.9C41.653 87.896 41.695 87.894 41.739 87.894C41.787 87.89 41.837 87.888 41.889 87.888C41.969 87.888 42.053 87.892 42.141 87.9C42.229 87.904 42.313 87.912 42.393 87.924C42.473 87.932 42.543 87.944 42.603 87.96C42.667 87.976 42.715 87.994 42.747 88.014C42.767 87.97 42.795 87.93 42.831 87.894C42.867 87.854 42.901 87.824 42.933 87.804ZM45.5 90.192C45.424 90.136 45.33 90.084 45.218 90.036C45.106 89.988 44.99 89.948 44.87 89.916C44.754 89.88 44.64 89.852 44.528 89.832C44.42 89.812 44.33 89.802 44.258 89.802C44.29 89.75 44.318 89.678 44.342 89.586C44.366 89.49 44.384 89.388 44.396 89.28C44.412 89.168 44.422 89.054 44.426 88.938C44.434 88.822 44.438 88.716 44.438 88.62C44.438 88.376 44.422 88.174 44.39 88.014C44.362 87.85 44.334 87.722 44.306 87.63C44.478 87.598 44.634 87.536 44.774 87.444C44.918 87.352 45.06 87.236 45.2 87.096C45.364 87.128 45.566 87.156 45.806 87.18C46.046 87.2 46.284 87.214 46.52 87.222C46.508 87.294 46.502 87.384 46.502 87.492C46.502 87.576 46.506 87.668 46.514 87.768C46.522 87.864 46.532 87.96 46.544 88.056C46.556 88.152 46.572 88.244 46.592 88.332C46.612 88.42 46.634 88.496 46.658 88.56C46.414 88.58 46.166 88.608 45.914 88.644C45.662 88.676 45.416 88.712 45.176 88.752C45.172 88.868 45.164 88.982 45.152 89.094C45.14 89.206 45.13 89.304 45.122 89.388C45.17 89.408 45.23 89.426 45.302 89.442C45.378 89.458 45.458 89.474 45.542 89.49C45.626 89.502 45.708 89.514 45.788 89.526C45.868 89.534 45.936 89.54 45.992 89.544C46.012 89.42 46.06 89.314 46.136 89.226C46.216 89.138 46.35 89.066 46.538 89.01C46.534 89.058 46.532 89.106 46.532 89.154C46.532 89.198 46.532 89.242 46.532 89.286C46.532 89.422 46.536 89.53 46.544 89.61C46.556 89.686 46.576 89.762 46.604 89.838C46.528 89.846 46.438 89.862 46.334 89.886C46.23 89.906 46.126 89.934 46.022 89.97C45.918 90.002 45.818 90.036 45.722 90.072C45.63 90.112 45.556 90.152 45.5 90.192ZM45.116 87.636C45.136 87.804 45.15 87.952 45.158 88.08C45.17 88.208 45.178 88.326 45.182 88.434L45.884 88.26C45.864 88.18 45.846 88.096 45.83 88.008C45.818 87.92 45.812 87.83 45.812 87.738C45.72 87.738 45.608 87.73 45.476 87.714C45.348 87.694 45.228 87.668 45.116 87.636ZM48.0496 88.074C48.1416 87.926 48.2276 87.77 48.3076 87.606C48.3876 87.442 48.4616 87.268 48.5296 87.084C48.6056 87.132 48.7136 87.182 48.8536 87.234C48.9936 87.282 49.1476 87.326 49.3156 87.366C49.2956 87.534 49.2596 87.688 49.2076 87.828C49.1556 87.964 49.0896 88.078 49.0096 88.17L48.6076 87.96H48.5356L48.0496 88.644V89.472C48.0496 89.612 48.0736 89.714 48.1216 89.778C48.1736 89.838 48.2636 89.878 48.3916 89.898V90H47.1076V89.91C47.2156 89.87 47.2696 89.742 47.2696 89.526V87.432L47.0476 87.336V87.27C47.1876 87.25 47.3396 87.224 47.5036 87.192C47.6676 87.156 47.8136 87.122 47.9416 87.09L48.0496 87.27V88.074ZM50.7558 90.192C50.6798 90.136 50.5858 90.084 50.4738 90.036C50.3618 89.988 50.2458 89.948 50.1258 89.916C50.0098 89.88 49.8958 89.852 49.7838 89.832C49.6758 89.812 49.5858 89.802 49.5138 89.802C49.5458 89.75 49.5738 89.678 49.5978 89.586C49.6218 89.49 49.6398 89.388 49.6518 89.28C49.6678 89.168 49.6778 89.054 49.6818 88.938C49.6898 88.822 49.6938 88.716 49.6938 88.62C49.6938 88.376 49.6778 88.174 49.6458 88.014C49.6178 87.85 49.5898 87.722 49.5618 87.63C49.7338 87.598 49.8898 87.536 50.0298 87.444C50.1738 87.352 50.3158 87.236 50.4558 87.096C50.6198 87.128 50.8218 87.156 51.0618 87.18C51.3018 87.2 51.5398 87.214 51.7758 87.222C51.7638 87.294 51.7578 87.384 51.7578 87.492C51.7578 87.576 51.7618 87.668 51.7698 87.768C51.7778 87.864 51.7878 87.96 51.7998 88.056C51.8118 88.152 51.8278 88.244 51.8478 88.332C51.8678 88.42 51.8898 88.496 51.9138 88.56C51.6698 88.58 51.4218 88.608 51.1698 88.644C50.9178 88.676 50.6718 88.712 50.4318 88.752C50.4278 88.868 50.4198 88.982 50.4078 89.094C50.3958 89.206 50.3858 89.304 50.3778 89.388C50.4258 89.408 50.4858 89.426 50.5578 89.442C50.6338 89.458 50.7138 89.474 50.7978 89.49C50.8818 89.502 50.9638 89.514 51.0438 89.526C51.1238 89.534 51.1918 89.54 51.2478 89.544C51.2678 89.42 51.3158 89.314 51.3918 89.226C51.4718 89.138 51.6058 89.066 51.7938 89.01C51.7898 89.058 51.7878 89.106 51.7878 89.154C51.7878 89.198 51.7878 89.242 51.7878 89.286C51.7878 89.422 51.7918 89.53 51.7998 89.61C51.8118 89.686 51.8318 89.762 51.8598 89.838C51.7838 89.846 51.6938 89.862 51.5898 89.886C51.4858 89.906 51.3818 89.934 51.2778 89.97C51.1738 90.002 51.0738 90.036 50.9778 90.072C50.8858 90.112 50.8118 90.152 50.7558 90.192ZM50.3718 87.636C50.3918 87.804 50.4058 87.952 50.4138 88.08C50.4258 88.208 50.4338 88.326 50.4378 88.434L51.1398 88.26C51.1198 88.18 51.1018 88.096 51.0858 88.008C51.0738 87.92 51.0678 87.83 51.0678 87.738C50.9758 87.738 50.8638 87.73 50.7318 87.714C50.6038 87.694 50.4838 87.668 50.3718 87.636ZM53.2455 87.582C53.2375 87.646 53.2315 87.708 53.2275 87.768C53.2275 87.828 53.2275 87.898 53.2275 87.978C53.2275 88.058 53.2295 88.138 53.2335 88.218C53.2375 88.298 53.2435 88.37 53.2515 88.434C53.3275 88.406 53.4055 88.382 53.4855 88.362C53.5695 88.342 53.6615 88.324 53.7615 88.308C53.8655 88.292 53.9815 88.278 54.1095 88.266C54.2375 88.254 54.3875 88.242 54.5595 88.23C54.5475 88.37 54.5415 88.574 54.5415 88.842C54.5415 89.07 54.5455 89.274 54.5535 89.454C54.5615 89.63 54.5755 89.764 54.5955 89.856C54.4715 89.856 54.3455 89.864 54.2175 89.88C54.0895 89.896 53.9675 89.918 53.8515 89.946C53.7355 89.974 53.6275 90.008 53.5275 90.048C53.4275 90.088 53.3435 90.132 53.2755 90.18C53.2275 90.136 53.1735 90.098 53.1135 90.066C53.0575 90.034 52.9895 90.008 52.9095 89.988C52.8295 89.964 52.7355 89.946 52.6275 89.934C52.5195 89.918 52.3915 89.906 52.2435 89.898C52.2515 89.774 52.2755 89.648 52.3155 89.52C52.3595 89.388 52.4135 89.282 52.4775 89.202C52.5695 89.202 52.7135 89.236 52.9095 89.304C53.1055 89.372 53.3655 89.478 53.6895 89.622C53.7135 89.494 53.7315 89.378 53.7435 89.274C53.7555 89.166 53.7615 89.054 53.7615 88.938C53.7615 88.866 53.7615 88.814 53.7615 88.782C53.7615 88.75 53.7595 88.72 53.7555 88.692C53.5795 88.708 53.3755 88.738 53.1435 88.782C52.9115 88.822 52.6935 88.87 52.4895 88.926C52.5055 88.754 52.5155 88.622 52.5195 88.53C52.5235 88.434 52.5255 88.348 52.5255 88.272C52.5255 88.092 52.5155 87.934 52.4955 87.798C52.4795 87.662 52.4515 87.536 52.4115 87.42C52.5635 87.42 52.7275 87.394 52.9035 87.342C53.0795 87.29 53.2995 87.208 53.5635 87.096C53.8155 87.224 54.1915 87.306 54.6915 87.342C54.6195 87.514 54.5375 87.64 54.4455 87.72C54.3535 87.796 54.2395 87.834 54.1035 87.834C54.0435 87.834 53.9755 87.828 53.8995 87.816C53.8235 87.804 53.7455 87.786 53.6655 87.762C53.5895 87.738 53.5135 87.712 53.4375 87.684C53.3655 87.652 53.3015 87.618 53.2455 87.582Z" fill="white"/>
</g>
<defs>
<filter id="filter0_d_0_1" x="-4" y="9" width="110" height="24" filterUnits="userSpaceOnUse" color-interpolation-filters="sRGB">
<feFlood flood-opacity="0" result="BackgroundImageFix"/>
<feColorMatrix in="SourceAlpha" type="matrix" values="0 0 0 0 0 0 0 0 0 0 0 0 0 0 0 0 0 0 127 0" result="hardAlpha"/>
<feOffset dy="4"/>
<feGaussianBlur stdDeviation="2"/>
<feComposite in2="hardAlpha" operator="out"/>
<feColorMatrix type="matrix" values="0 0 0 0 0 0 0 0 0 0 0 0 0 0 0 0 0 0 0.25 0"/>
<feBlend mode="normal" in2="BackgroundImageFix" result="effect1_dropShadow_0_1"/>
<feBlend mode="normal" in="SourceGraphic" in2="effect1_dropShadow_0_1" result="shape"/>
</filter>
<filter id="filter1_d_0_1" x="7" y="0" width="27" height="152" filterUnits="userSpaceOnUse" color-interpolation-filters="sRGB">
<feFlood flood-opacity="0" result="BackgroundImageFix"/>
<feColorMatrix in="SourceAlpha" type="matrix" values="0 0 0 0 0 0 0 0 0 0 0 0 0 0 0 0 0 0 127 0" result="hardAlpha"/>
<feOffset dy="4"/>
<feGaussianBlur stdDeviation="2"/>
<feComposite in2="hardAlpha" operator="out"/>
<feColorMatrix type="matrix" values="0 0 0 0 0 0 0 0 0 0 0 0 0 0 0 0 0 0 0.25 0"/>
<feBlend mode="normal" in2="BackgroundImageFix" result="effect1_dropShadow_0_1"/>
<feBlend mode="normal" in="SourceGraphic" in2="effect1_dropShadow_0_1" result="shape"/>
</filter>
<filter id="filter2_d_0_1" x="11" y="77" width="51" height="23" filterUnits="userSpaceOnUse" color-interpolation-filters="sRGB">
<feFlood flood-opacity="0" result="BackgroundImageFix"/>
<feColorMatrix in="SourceAlpha" type="matrix" values="0 0 0 0 0 0 0 0 0 0 0 0 0 0 0 0 0 0 127 0" result="hardAlpha"/>
<feOffset dy="4"/>
<feGaussianBlur stdDeviation="2"/>
<feComposite in2="hardAlpha" operator="out"/>
<feColorMatrix type="matrix" values="0 0 0 0 0 0 0 0 0 0 0 0 0 0 0 0 0 0 0.25 0"/>
<feBlend mode="normal" in2="BackgroundImageFix" result="effect1_dropShadow_0_1"/>
<feBlend mode="normal" in="SourceGraphic" in2="effect1_dropShadow_0_1" result="shape"/>
</filter>
<clipPath id="clip0_0_1">
<rect width="102" height="144" fill="white"/>
</clipPath>
</defs>
</svg>
