<svg width="59" height="59" viewBox="0 0 59 59" fill="none" xmlns="http://www.w3.org/2000/svg">
<g id="OracleO">
<g id="LetraO" filter="url(#filter0_d_1_34)">
<mask id="path-1-inside-1_1_34" fill="white">
<path d="M55 25.5C55 39.5833 43.5833 51 29.5 51C15.4167 51 4 39.5833 4 25.5C4 11.4167 15.4167 0 29.5 0C43.5833 0 55 11.4167 55 25.5ZM14.6671 25.5C14.6671 33.692 21.308 40.3329 29.5 40.3329C37.692 40.3329 44.3329 33.692 44.3329 25.5C44.3329 17.308 37.692 10.6671 29.5 10.6671C21.308 10.6671 14.6671 17.308 14.6671 25.5Z"/>
</mask>
<path d="M55 25.5C55 39.5833 43.5833 51 29.5 51C15.4167 51 4 39.5833 4 25.5C4 11.4167 15.4167 0 29.5 0C43.5833 0 55 11.4167 55 25.5ZM14.6671 25.5C14.6671 33.692 21.308 40.3329 29.5 40.3329C37.692 40.3329 44.3329 33.692 44.3329 25.5C44.3329 17.308 37.692 10.6671 29.5 10.6671C21.308 10.6671 14.6671 17.308 14.6671 25.5Z" fill="#FC6A03"/>
<path d="M55 25.5C55 39.5833 43.5833 51 29.5 51C15.4167 51 4 39.5833 4 25.5C4 11.4167 15.4167 0 29.5 0C43.5833 0 55 11.4167 55 25.5ZM14.6671 25.5C14.6671 33.692 21.308 40.3329 29.5 40.3329C37.692 40.3329 44.3329 33.692 44.3329 25.5C44.3329 17.308 37.692 10.6671 29.5 10.6671C21.308 10.6671 14.6671 17.308 14.6671 25.5Z" stroke="black" stroke-width="3" mask="url(#path-1-inside-1_1_34)"/>
</g>
<line id="LinhaO2" x1="15.6" y1="10.7" x2="18.6" y2="6.7" stroke="black"/>
<line id="LinhaO1" x1="15.3866" y1="6.68288" x2="18.5578" y2="10.5485" stroke="black"/>
</g>
<defs>
<filter id="filter0_d_1_34" x="0" y="0" width="59" height="59" filterUnits="userSpaceOnUse" color-interpolation-filters="sRGB">
<feFlood flood-opacity="0" result="BackgroundImageFix"/>
<feColorMatrix in="SourceAlpha" type="matrix" values="0 0 0 0 0 0 0 0 0 0 0 0 0 0 0 0 0 0 127 0" result="hardAlpha"/>
<feOffset dy="4"/>
<feGaussianBlur stdDeviation="2"/>
<feComposite in2="hardAlpha" operator="out"/>
<feColorMatrix type="matrix" values="0 0 0 0 0 0 0 0 0 0 0 0 0 0 0 0 0 0 0.25 0"/>
<feBlend mode="normal" in2="BackgroundImageFix" result="effect1_dropShadow_1_34"/>
<feBlend mode="normal" in="SourceGraphic" in2="effect1_dropShadow_1_34" result="shape"/>
</filter>
</defs>
</svg>
